<svg width="17" height="21" viewBox="0 0 17 21" fill="none" xmlns="http://www.w3.org/2000/svg">
<path opacity="0.3" d="M16.479 13.1529C16.2323 13.055 15.9855 12.9852 15.725 12.9432C15.0258 12.8314 13.4492 12.5798 13.4355 12.5798C11.804 12.44 8.3629 13.111 8.08871 13.2787C8.03387 13.3206 7.59516 13.4604 7.40323 13.2787C7.26613 13.1389 7.11532 12.9432 7.48548 12.5658C7.84194 12.2024 7.97903 12.1605 9.04839 10.4832C9.59677 9.64452 9.84355 9.44883 10.2823 9.22519C11.0911 8.81984 11.9274 8.52631 12.75 8.24676C13.3806 8.0371 14.8065 6.56945 14.8065 6.56945C15.629 5.87058 16.5887 3.63417 16.5887 3.63417C16.8629 2.93529 16.3145 2.93529 15.4919 3.07506C15.1903 3.13097 14.8065 3.21484 14.3952 3.49439C13.5177 4.09543 11.5298 5.57705 11.5161 5.59103C11.5024 5.605 10.6935 6.2899 9.87097 7.68766C9.54194 8.24676 9.08952 9.21121 8.82903 9.77032C8.69193 10.0638 8.52742 10.3294 8.33548 10.581L6.59436 12.8314C6.30645 13.2647 6.04597 13.4045 6.03226 13.4045C5.75806 13.5443 5.62097 13.4045 5.62097 12.8454C5.62097 12.0067 5.82661 10.8186 6.85484 9.77032C7.85564 8.74996 7.91048 6.76514 7.91048 6.69525C7.92419 6.61139 7.70484 4.86419 7.91048 4.05349C8.12984 3.17291 7.65 0.628991 7.26613 0.293529C7.26613 0.293529 6.90968 0 6.75887 0C6.63548 0 6.5121 0.0559106 6.44355 0.153754C5.84032 0.936497 4.66129 3.35462 4.52419 4.6126C4.41452 5.59103 4.3871 6.15013 4.3871 7.12856C4.3871 8.10699 4.45564 10.5531 4.93548 11.0423C5.3879 11.5035 5.1 13.7539 5.07258 13.9636C5.07258 13.9776 4.79839 14.5227 4.79839 14.5367C4.66129 14.8162 4.35968 15.1237 4.1129 15.5151C3.83871 15.9344 3.59193 16.4935 3.01613 16.4935C2.87903 16.4935 2.82419 16.1301 2.87903 16.0742C2.87903 16.0742 3.15323 15.5291 3.15323 15.5151C3.20806 15.3893 3.42742 14.8162 3.29032 13.9776C3.23548 13.6421 3.04355 12.8594 1.50806 12.8594C0.41129 12.8594 0.658065 14.6764 0.685484 14.8162C0.822581 15.3753 1.00081 15.7667 1.26129 15.9065C1.64516 16.0742 1.8371 16.172 1.9879 16.5634C2.16613 17.0247 2.05645 17.7515 1.64516 18.4504C1.34355 18.9536 0.370161 20.2954 0.150806 20.5191C0.137097 20.533 0 20.6868 0 20.8545C0 20.9663 0.123387 21.0362 0.219355 20.9803C0.287903 20.9384 0.342742 20.9104 0.356451 20.8825L0.891129 20.3374L2.46774 18.4504L5.48387 15.6549C5.48387 15.6549 5.96371 15.3054 6.30645 15.6549C6.63548 15.9903 7.63629 16.0742 7.67742 16.0742C9.04839 16.214 9.87097 16.3538 12.6403 15.9204C13.0242 15.9344 17 14.1173 17 13.698C17 13.4464 16.7669 13.2787 16.479 13.1529ZM11.6532 6.2899C12.2016 5.71682 12.75 5.31147 12.75 5.31147C13.0379 5.08783 13.696 4.58464 14.121 4.19327C14.1895 4.13736 14.3129 4.01156 14.5323 3.91372C14.6831 3.84383 14.8202 3.81587 15.0806 3.77394C15.4919 3.70405 15.6839 3.6761 15.7661 3.77394C15.7935 3.81587 15.8073 3.88576 15.7661 4.05349C15.6702 4.41691 15.4508 4.62657 15.2177 4.89215C14.7927 5.38136 14.9298 5.33943 14.6694 5.59103C14.2306 5.99637 14.0113 5.95444 13.8468 6.2899C13.8056 6.37377 13.7371 6.5415 13.5726 6.70923C13.4081 6.87696 13.3258 6.84901 13.2984 6.84901C13.2161 6.83503 13.175 6.73719 13.1613 6.70923C13.0653 6.49957 13.2298 6.37377 13.1613 6.15013C13.1202 6.02433 13.0105 5.87058 12.8871 5.87058C12.7637 5.87058 12.7226 6.01035 12.4758 6.2899C12.2702 6.52752 12.1331 6.68128 11.9274 6.70923C11.7629 6.73719 11.5573 6.68128 11.5161 6.56945C11.4887 6.47161 11.6121 6.34581 11.6532 6.2899ZM2.60484 14.8162C2.56371 14.928 2.49516 14.942 2.33064 15.0958C2.13871 15.2775 2.13871 15.3753 2.05645 15.3753C1.93306 15.3753 1.80968 15.1517 1.78226 14.956C1.75484 14.7463 1.8371 14.6904 1.78226 14.5367C1.75484 14.4808 1.67258 14.3969 1.50806 14.2571C1.32984 14.1034 1.275 14.0754 1.23387 13.9776C1.22016 13.9496 1.16532 13.8098 1.23387 13.698C1.28871 13.6002 1.39839 13.5862 1.50806 13.5582C1.59032 13.5443 1.74113 13.5163 1.91935 13.5582C2.07016 13.5862 2.30323 13.6281 2.46774 13.8378C2.49516 13.8657 2.57742 13.9636 2.60484 14.1173C2.63226 14.2431 2.60484 14.2851 2.60484 14.5367C2.61855 14.7463 2.63226 14.7603 2.60484 14.8162ZM5.48387 10.2036C5.36048 10.2036 5.25081 9.78429 5.20968 9.50474C5.15484 9.14133 5.19597 8.8478 5.20968 8.80587C5.36048 7.84141 5.08629 7.36618 5.20968 5.7308C5.26452 5.03192 5.30564 5.18568 5.34677 4.6126C5.36048 4.30509 5.36048 4.12338 5.48387 3.91372C5.57984 3.75996 5.6621 3.71803 5.75806 3.49439C5.79919 3.41053 5.79919 3.39655 5.89516 3.07506C5.96371 2.85142 6.00484 2.7396 6.03226 2.65574C6.15564 2.34823 6.19677 2.36221 6.30645 2.09663C6.47097 1.69129 6.41613 1.4956 6.58064 1.39776C6.6629 1.35582 6.78629 1.34185 6.85484 1.39776C6.95081 1.48162 6.88226 1.69129 6.85484 1.81708C6.75887 2.23641 6.92339 2.33425 6.99194 3.07506C7.06048 3.82985 6.89597 3.78792 6.99194 4.33304C7.06048 4.69646 7.12903 4.69646 7.26613 5.31147C7.3621 5.74478 7.38952 6.03831 7.40323 6.15013C7.43064 6.49957 7.41693 6.70923 7.40323 6.98878C7.37581 7.43606 7.32097 7.50595 7.26613 7.54788C7.11532 7.64573 6.86855 7.54788 6.71774 7.40811C6.63548 7.32424 6.59435 7.24038 6.44355 6.56945C6.36129 6.20604 6.33387 6.02433 6.16935 5.87058C6.11452 5.81467 5.99113 5.68887 5.89516 5.7308C5.84032 5.75876 5.74435 5.8566 5.89516 7.12856C6.00484 8.00914 6.05968 8.05108 6.03226 8.38654C6.01855 8.56825 5.93629 8.87575 5.75806 9.50474C5.60726 10.0918 5.55242 10.2036 5.48387 10.2036ZM15.4234 14.0475C15.396 14.2292 15.204 14.355 15.0121 14.4668C14.7242 14.6345 14.546 14.6485 14.1895 14.7463C13.7919 14.8582 13.8468 14.8861 13.0927 15.1657C12.6677 15.3194 12.3387 15.4173 12.2702 15.4452C11.6806 15.6269 11.3516 15.585 9.11694 15.585C9.11694 15.585 8.76048 15.585 7.47177 15.4452C7.03306 15.4033 6.71774 15.3613 6.64919 15.1657C6.58064 14.9839 6.8 14.7324 6.92339 14.6066C7.30726 14.1872 7.75968 14.0335 8.15726 13.9077C9.14435 13.5862 9.6379 13.4185 10.0766 13.3486C10.3097 13.3066 10.8718 13.2787 11.996 13.2088C11.996 13.2088 12.4484 13.1808 13.9153 13.2088C14.2169 13.2088 14.6282 13.2228 15.0121 13.4883C15.1218 13.5582 15.4645 13.7959 15.4234 14.0475Z" fill="black"/>
</svg>
