<svg width="26" height="30" viewBox="0 0 26 30" xmlns="http://www.w3.org/2000/svg">
<path d="M25 25.9325L23.2822 6.58896C23.2454 6.15951 22.8835 5.83436 22.4602 5.83436H18.9264C18.8773 2.60736 16.2393 0 13 0C9.76077 0 7.12273 2.60736 7.07365 5.83436H3.53991C3.11046 5.83436 2.75463 6.15951 2.71782 6.58896L1.00003 25.9325C1.00003 25.9571 0.993896 25.9816 0.993896 26.0061C0.993896 28.2086 3.0123 30 5.49696 30H20.5031C22.9878 30 25.0062 28.2086 25.0062 26.0061C25.0062 25.9816 25.0062 25.9571 25 25.9325ZM13 1.65644C15.3252 1.65644 17.2209 3.52147 17.27 5.83436H8.73009C8.77917 3.52147 10.6749 1.65644 13 1.65644ZM20.5031 28.3436H5.49696C3.93868 28.3436 2.67488 27.3129 2.65034 26.0429L4.29451 7.49693H7.06752V10.0123C7.06752 10.4724 7.43561 10.8405 7.89574 10.8405C8.35586 10.8405 8.72396 10.4724 8.72396 10.0123V7.49693H17.27V10.0123C17.27 10.4724 17.6381 10.8405 18.0982 10.8405C18.5583 10.8405 18.9264 10.4724 18.9264 10.0123V7.49693H21.6994L23.3497 26.0429C23.3252 27.3129 22.0552 28.3436 20.5031 28.3436Z"/>
</svg>
