<svg width="12" height="12" viewBox="0 0 12 12" fill="none" xmlns="http://www.w3.org/2000/svg">
<path d="M4.70073 1.94454L5.59752 4.1096C5.72741 4.08197 5.86201 4.06716 6.00001 4.06716C6.13801 4.06716 6.27261 4.08197 6.40251 4.1096L7.29929 1.94454C7.48213 1.50319 7.43474 1.02223 7.16933 0.625031C6.90395 0.227812 6.47776 0 6.00004 0C5.52231 0 5.0961 0.227812 4.83069 0.625008C4.56529 1.02223 4.51792 1.50319 4.70073 1.94454Z" fill="black"/>
<path d="M8.97384 1.37247C8.5053 1.46568 8.13171 1.77227 7.94892 2.21362L7.05176 4.3796C7.27868 4.52737 7.47265 4.72136 7.62045 4.94829L9.78642 4.0511C10.2278 3.86829 10.5344 3.49471 10.6276 3.02618C10.7208 2.55764 10.5805 2.09517 10.2427 1.75736C9.90483 1.41958 9.44238 1.27926 8.97384 1.37247Z" fill="black"/>
<path d="M11.375 4.83066C10.9777 4.56523 10.4968 4.51786 10.0554 4.70069L7.89038 5.59748C7.91801 5.72737 7.93283 5.86197 7.93283 5.99997C7.93283 6.13797 7.91801 6.27257 7.89038 6.40246L10.0554 7.29925C10.4967 7.48206 10.9778 7.43472 11.375 7.16929C11.7722 6.90393 12 6.47772 12 6C12 5.52227 11.7722 5.09606 11.375 4.83066Z" fill="black"/>
<path d="M10.6275 8.97385C10.5342 8.50531 10.2277 8.13171 9.78631 7.94892L7.62032 7.05173C7.47255 7.27866 7.27856 7.47263 7.05164 7.62042L7.9488 9.78641C8.13162 10.2278 8.50519 10.5343 8.97373 10.6276C9.44224 10.7208 9.90476 10.5804 10.2425 10.2427C10.5804 9.90484 10.7207 9.44239 10.6275 8.97385Z" fill="black"/>
<path d="M7.29929 10.0555L6.4025 7.8904C6.27261 7.91803 6.13801 7.93284 6.00001 7.93284C5.86201 7.93284 5.72741 7.91803 5.59752 7.8904L4.70073 10.0555C4.51792 10.4968 4.56529 10.9778 4.83069 11.375C5.09605 11.7722 5.52226 12 5.99999 12C6.47772 12 6.9039 11.7722 7.16933 11.375C7.43474 10.9778 7.48211 10.4968 7.29929 10.0555Z" fill="black"/>
<path d="M3.02629 10.6275C3.49482 10.5343 3.86839 10.2277 4.05121 9.78638L4.94837 7.6204C4.72145 7.47263 4.52748 7.27863 4.37968 7.05171L2.21371 7.9489C1.77236 8.13171 1.46577 8.50528 1.37256 8.97382C1.27935 9.44236 1.41965 9.90483 1.75745 10.2426C2.09528 10.5804 2.5577 10.7207 3.02629 10.6275Z" fill="black"/>
<path d="M0.625008 7.16933C1.02223 7.43474 1.50316 7.48211 1.94452 7.29929L4.10958 6.40251C4.08195 6.27262 4.06713 6.13802 4.06713 6.00002C4.06713 5.86202 4.08195 5.72742 4.10958 5.59753L1.94452 4.70074C1.50316 4.51793 1.02223 4.56529 0.625008 4.8307C0.227812 5.09606 0 5.52227 0 5.99999C0 6.47772 0.227812 6.90393 0.625008 7.16933Z" fill="black"/>
<path d="M1.37244 3.02618C1.46565 3.49472 1.77223 3.86829 2.21359 4.05111L4.37956 4.94829C4.52734 4.72137 4.72133 4.5274 4.94825 4.37961L4.05109 2.21363C3.86827 1.77228 3.4947 1.46569 3.02616 1.37248C2.55758 1.27922 2.09513 1.41954 1.7573 1.75735C1.41952 2.09518 1.27923 2.55762 1.37244 3.02618Z" fill="black"/>
<path d="M6.00001 7.22974C6.67917 7.22974 7.22975 6.67917 7.22975 6C7.22975 5.32083 6.67917 4.77026 6.00001 4.77026C5.32084 4.77026 4.77026 5.32083 4.77026 6C4.77026 6.67917 5.32084 7.22974 6.00001 7.22974Z" fill="black"/>
</svg>
