<svg width="39" height="19" viewBox="0 0 39 19" fill="none" xmlns="http://www.w3.org/2000/svg">
<path d="M1.52341 11.0234L33.7866 11.0234L28.4421 16.3421C27.8457 16.9356 27.8435 17.9002 28.437 18.4965C29.0305 19.0929 29.9952 19.0951 30.5915 18.5017L38.5518 10.5798C38.5523 10.5794 38.5527 10.5788 38.5531 10.5784C39.148 9.98484 39.1499 9.01715 38.5533 8.42164C38.5528 8.42118 38.5524 8.42065 38.5519 8.4202L30.5917 0.498321C29.9954 -0.0950573 29.0307 -0.0930013 28.4371 0.503501C27.8436 1.09985 27.8459 2.06441 28.4422 2.65794L33.7866 7.97657L1.52341 7.97657C0.682012 7.97657 -2.96183e-05 8.65861 -2.96918e-05 9.5C-2.97654e-05 10.3414 0.682011 11.0234 1.52341 11.0234Z" fill="black"/>
</svg>
