<svg width="39" height="19" viewBox="0 0 39 19" fill="none" xmlns="http://www.w3.org/2000/svg">
<path d="M37.4766 7.97656H5.21339L10.5579 2.65793C11.1543 2.0644 11.1565 1.09984 10.563 0.503487C9.96948 -0.092939 9.00484 -0.0951475 8.40849 0.498307L0.448224 8.42018C0.447691 8.42064 0.44731 8.42117 0.446853 8.42163C-0.147973 9.01516 -0.149877 9.98285 0.446701 10.5784C0.447234 10.5788 0.447615 10.5793 0.448072 10.5798L8.40834 18.5017C9.00461 19.0951 9.96925 19.093 10.5629 18.4965C11.1564 17.9001 11.1541 16.9356 10.5578 16.3421L5.21339 11.0234H37.4766C38.318 11.0234 39 10.3414 39 9.49999C39 8.6586 38.318 7.97656 37.4766 7.97656Z" fill="black"/>
</svg>
