<svg width="30" height="30" viewBox="0 0 30 30" xmlns="http://www.w3.org/2000/svg">
<path d="M15 0C10.6383 0 7.08984 3.5485 7.08984 7.91016C7.08984 12.2718 10.6383 15.8203 15 15.8203C19.3617 15.8203 22.9102 12.2718 22.9102 7.91016C22.9102 3.5485 19.3617 0 15 0ZM15 14.0625C11.6076 14.0625 8.84766 11.3026 8.84766 7.91016C8.84766 4.51775 11.6076 1.75781 15 1.75781C18.3924 1.75781 21.1523 4.51775 21.1523 7.91016C21.1523 11.3026 18.3924 14.0625 15 14.0625Z" />
<path d="M17.4512 17.6367H12.5488C8.49398 17.6367 4.49232 19.5088 1.81641 23.5229V30H28.1836V23.5229C25.5115 19.5146 21.511 17.6367 17.4512 17.6367ZM26.4258 28.2422H26.4258H3.57422V24.0608C5.62682 21.1338 8.96203 19.3945 12.5488 19.3945H17.4512C21.038 19.3945 24.3732 21.1338 26.4258 24.0608V28.2422Z" />
</svg>
