<svg width="427" height="57" viewBox="0 0 427 57" fill="none" xmlns="http://www.w3.org/2000/svg">
<g clip-path="url(#clip0)">
<path d="M220 16.0717C220 16.6706 220.4 16.6706 220.7 16.7704C223.2 17.7687 225.7 18.6671 228.1 19.7652C234.7 22.7599 240.3 27.0524 245.2 32.4429C245.7 32.9421 246.2 33.541 246.6 34.14C246.9 34.5393 247.1 35.0384 247.4 35.5375C247.6 35.9368 247.6 36.3361 247.2 36.6356C246.9 36.8352 246.5 36.7354 246.2 36.3361C245.1 34.7389 243.7 33.4412 242.3 32.1435C235.5 25.555 227.4 21.1627 218.4 18.4675C213.2 16.8703 215.1 16.9701 209.9 18.4675C203.9 20.2643 198.2 22.8598 193 26.4534C189.6 28.7494 186.6 31.6443 183.6 34.5393C183 35.1382 182.5 35.9368 182 36.5358C181.8 36.8352 181.4 36.9351 181.1 36.7354C180.9 36.6356 180.8 36.2363 180.8 36.0366C180.9 35.5375 181.1 34.9386 181.4 34.5393C182.2 33.541 183 32.5428 183.8 31.6443C190 24.8563 197.7 20.3641 206.3 17.2696C206.9 17.0699 207.4 16.8703 208 16.6706C208.1 16.6706 208.1 16.5708 208.2 16.471C208.1 16.3711 208 16.1715 207.8 16.1715C202.7 15.5725 197.6 15.1732 192.4 15.4727C183.1 15.9718 174.1 18.2678 165.4 21.4622C158 24.1575 150.7 27.0524 143.4 29.8475C133.4 33.7407 123.1 36.8352 112.6 38.9316C107.4 40.0296 102.1 40.8282 96.8 41.2275C91.3 41.6268 85.9 41.9263 80.4 41.9263C70.9 41.8265 61.5 40.6286 52.3 38.3326C41.1 35.4377 31.7 29.8475 23.5 21.9613C21.1 19.6654 18.9 17.1697 16.8 14.5743C14.8 12.2783 13 9.7827 11.2 7.28707C10.8 6.78795 10.5 6.189 10.3 5.49023C10.2 5.19075 10.4 4.69163 10.6 4.39215C10.9 3.99285 11.5 3.99285 11.9 4.29233C12.4 4.5918 12.8 4.9911 13.2 5.49023C14.3 6.88777 15.3 8.38515 16.4 9.88252C18.4 12.478 20.4 15.0734 22.6 17.4692C31.5 27.1522 42.4 33.541 55.3 36.3361C63.3 38.0331 71.3 39.0314 79.5 39.1312C86.7 39.231 93.9 38.9316 101.1 38.133C108.2 37.3344 115.1 35.7372 122.1 34.0401C130.3 31.9438 138.3 29.0489 146.2 26.0542C152.5 23.6584 158.8 21.2626 165.1 18.9666C171 16.7704 177.2 15.1732 183.4 14.0752C187.5 13.3764 191.7 12.9771 195.9 12.9771C201.6 12.9771 207.4 13.3764 213 14.5743C213.9 14.7739 214.7 14.7739 215.6 14.5743C223.2 12.9771 230.8 12.5778 238.5 13.1767C244.8 13.6759 251 15.0734 257.1 16.8703C263.1 18.6671 268.9 20.9631 274.8 23.1592C281.7 25.7547 288.5 28.3501 295.4 30.7459C303.9 33.6408 312.7 35.7372 321.5 37.3344C326.8 38.2328 332.1 38.7319 337.4 38.9316C342.6 39.1312 347.8 39.231 353 39.0314C361.2 38.6321 369.3 37.534 377.2 35.238C388 32.2433 397.2 26.3536 405 18.2678C407.6 15.5725 410 12.5778 412.2 9.48322C413.2 8.1855 414.1 6.78795 415.1 5.49023C415.5 4.9911 415.9 4.5918 416.4 4.39215C416.7 4.1925 417.2 4.29233 417.5 4.49198C417.9 4.69163 418.1 5.19075 417.9 5.68987C417.7 6.189 417.5 6.68812 417.2 7.08742C413.6 11.879 410 16.6706 405.7 20.9631C396.3 30.3466 385.2 36.5358 372.1 39.1312C361.1 41.3274 350 42.2258 338.7 41.6268C335 41.4272 331.3 41.2275 327.5 40.8282C321.7 40.2293 315.9 39.0314 310.2 37.7337C300.4 35.4377 290.9 32.2433 281.5 28.5498C275.3 26.154 269.1 23.7582 262.8 21.4622C256.4 19.0664 249.7 17.2696 242.9 16.1715C238.3 15.4727 233.6 15.0734 229 15.3729C226.2 15.4727 223.4 15.7722 220.6 16.0717C220.4 15.872 220.2 15.9718 220 16.0717Z" fill="#A8A5A5"/>
<path d="M266.9 7.886C267.3 6.98758 267.6 6.18898 267.9 5.4902C268.8 3.79318 270.4 3.29406 272.1 4.19248C274 5.19073 274.8 7.28705 273.8 9.0839C272.7 11.0804 270.3 11.6793 268.5 10.5813C268.1 10.3816 267.8 9.98232 267.4 9.68285C261.8 11.879 256.2 13.7757 250.4 15.1732C250.3 15.6723 250.6 15.7722 250.8 15.872C254.3 17.7687 257.2 20.4639 259.6 23.5585C261 25.3554 262.4 27.1522 263.7 28.949C266.9 29.0489 268.2 29.7476 268.7 31.9438C269.1 33.541 268.3 35.1382 266.9 36.0366C265.3 36.935 263.5 36.7354 262.1 35.5375C260.6 34.1399 260.5 32.8422 261.8 30.2468C259 27.0524 256.5 23.4587 253.3 20.5638C251.6 18.9666 249.6 17.6688 247.6 16.5708C246.6 16.0716 245.7 15.3729 244.5 15.273C243.9 15.1732 243.2 14.9736 242.8 14.2748C242.7 14.0751 242.6 13.8755 242.7 13.6758C242.8 13.4762 243.1 13.3764 243.3 13.1767C243.3 13.1767 243.4 13.1767 243.5 13.1767C246.6 13.8755 249.6 13.1767 252.6 12.3781C256.1 11.3799 259.5 10.2818 262.9 9.28355C264.2 8.78442 265.5 8.38512 266.9 7.886Z" fill="#A8A5A5"/>
<path d="M283.4 16.9701C283.9 15.9719 284.2 15.0734 284.8 14.2748C285.8 12.7775 287.5 12.2783 289 12.9771C290.6 13.7757 291.4 15.5726 290.9 17.5691C290.4 19.4657 288.9 20.5638 287 20.2643C286.5 20.1645 286 19.9649 285.5 19.6654C285.1 19.4657 284.7 19.1663 284.3 18.8668C280.1 20.1645 275.9 21.3624 271.6 22.161L271.5 22.2608C279.6 28.7494 279.2 29.2486 285 36.6356C285.5 36.6356 286.1 36.5358 286.7 36.5358C288.5 36.5358 289.9 37.534 290.5 38.9316C291 40.429 290.6 42.126 289.3 43.3239C286.9 45.52 283.2 44.5218 282.1 41.4272C281.8 40.7284 281.8 40.0297 282.2 39.3309C282.4 38.8318 282.7 38.4325 283 37.8335C282.8 37.534 282.5 37.1347 282.2 36.7354C280.7 34.8388 279.2 33.0419 277.7 31.1452C275.3 28.2503 272.5 25.555 269.4 23.3589C269.3 23.2591 269.2 23.2591 269.1 23.1593C268.2 22.2608 267.2 21.6619 265.9 21.4622C265.4 21.3624 264.9 21.0629 264.5 20.6636C264.3 20.464 264.2 20.0647 264.3 19.7652C264.4 19.3659 264.7 19.2661 265.1 19.3659C265.9 19.4657 266.7 19.6654 267.5 19.7652C269.8 19.9649 272.2 19.7652 274.4 19.1663C277.3 18.4675 280.1 17.7687 282.9 17.0699C283.1 17.0699 283.3 16.9701 283.4 16.9701Z" fill="#A8A5A5"/>
<path d="M302.5 44.8212C300.1 40.928 297.5 37.2345 294.3 34.1399C293.3 33.1417 292.2 32.2433 291.1 31.4447C289.7 30.4464 288.2 29.548 286.4 29.4482C285.9 29.4482 285.3 29.2485 284.8 29.1487C284.5 29.0489 284.2 28.8492 284 28.6496C283.8 28.4499 283.8 28.1504 283.8 27.9508C283.9 27.7511 284.1 27.4517 284.3 27.4517C285 27.3518 285.6 27.3518 286.3 27.4517C288.8 27.7511 291.2 27.5515 293.6 26.9525C296 26.3536 301.8 24.3571 304.2 23.1592C304.4 21.8615 305.2 20.963 306.1 19.9648C307.5 18.3676 309.7 18.5673 310.9 20.1645C312.6 22.4604 311.3 26.0541 308.5 26.6531C307.7 26.8527 307 26.6531 306.4 26.3536C305.9 26.1539 305.5 25.7546 305 25.3553C303 26.1539 301 26.9525 299 27.6513C296.9 28.3501 294.8 28.949 292.6 29.6478C293.9 30.7459 295.2 31.6443 296.3 32.6426C297.4 33.6408 298.5 34.7389 299.5 35.9368C300.5 37.1347 301.4 38.4324 302.3 39.83C303.2 41.1277 303.9 42.4254 304.8 43.7231C305.3 43.7231 305.8 43.6233 306.2 43.6233C307.8 43.6233 309.2 44.6215 309.7 46.1189C310.1 47.5165 309.6 49.0138 308.2 49.9123C306.7 50.9105 305.1 51.1102 303.5 50.3116C301.7 49.4131 301.1 47.6163 301.9 45.8194C302 45.6198 302.2 45.3203 302.5 44.8212Z" fill="#A8A5A5"/>
<path d="M311.1 36.8353C310.3 36.7354 309.5 36.6356 308.7 36.436C308.5 36.436 308.3 36.0367 308.3 35.837C308.3 35.6374 308.5 35.3379 308.7 35.2381C309.1 35.0384 309.6 34.9386 310.1 34.9386C313.1 34.6391 315.8 33.6409 318.2 31.7442C319.9 30.4465 321.5 29.0489 323.1 27.6514C322.8 26.0542 323.2 24.6566 324.1 23.4587C325.8 20.9631 329.3 21.1628 330.6 23.858C331.1 24.8563 331.1 25.8545 330.7 26.9526C329.9 28.6496 328 29.7477 326.1 29.548C325.6 29.4482 325.2 29.3484 324.7 29.2486C324.3 29.548 323.9 29.9473 323.5 30.2468C322.4 31.1452 321.4 32.1435 320.3 32.9421C318.7 34.2398 317 35.2381 315.1 35.837C314.8 35.9368 314.5 36.0367 314.1 36.2363C314.4 36.436 314.5 36.5358 314.7 36.6356C317.6 38.133 319.4 40.5288 320.6 43.4237C321.1 44.6216 321.4 45.8195 321.8 47.0174C321.9 47.4167 322.1 47.9158 322.3 48.4149C322.7 48.4149 323.1 48.4149 323.5 48.4149C325.5 48.5148 326.9 49.7127 327 51.7092C327.2 53.8055 325.7 55.802 323.6 56.3011C321.6 56.8002 319.7 56.0016 318.7 54.2048C318 53.0069 318 51.809 318.8 50.6111C319.1 50.2118 319.5 49.8125 319.8 49.4132C319.5 46.5183 317.8 42.5253 316.1 40.5288C315.1 39.3309 313.9 38.133 312.3 37.7337C311.6 37.6339 311.5 37.0349 311.1 36.8353Z" fill="#A8A5A5"/>
<path d="M331 39.7302C329.8 39.7302 328.8 39.7302 327.8 39.7302C327.5 39.7302 327.1 39.5306 326.9 39.3309C326.7 39.2311 326.6 38.8318 326.6 38.6322C326.6 38.5323 326.8 38.2329 327 38.2329C327.3 38.133 327.6 38.133 328 38.0332C331.2 37.8336 334.1 36.9351 336.7 35.0385C338.5 33.6409 340.3 32.2434 342 30.9456C342 30.6462 342.1 30.4465 342 30.3467C341.2 28.3502 342.2 26.9526 343.5 25.7547C344.9 24.457 347.1 24.7565 348.2 26.3537C349.1 27.5516 349.2 28.9491 348.5 30.3467C347.8 31.6444 346.7 32.443 345.1 32.443C344.6 32.443 344.2 32.3432 343.6 32.3432C340.5 34.739 337.6 37.5341 333.6 39.0315C335.1 39.9299 336.5 40.6287 337.8 41.5271C339.2 42.4255 340.3 43.5236 341.2 44.8213C342.1 46.119 343.1 47.4167 344 48.7145C344.5 48.6146 344.9 48.415 345.3 48.3152C347.1 48.0157 348.6 48.8143 349.3 50.5113C350 52.3082 349.4 54.704 347.9 56.0017C346.7 56.9999 344.9 57.1996 343.6 56.401C342.2 55.6024 341.6 54.3047 341.8 52.7075C341.9 52.3082 342 51.9089 342.2 51.6094C342.4 51.1103 342.3 50.711 342 50.3117C340.6 48.3152 339.3 46.2188 337.5 44.422C336.1 43.0245 334.5 41.9264 332.8 41.1278C332.3 40.9281 331.5 40.6287 331 39.7302Z" fill="#A8A5A5"/>
<path d="M361.4 29.8475C361.2 29.4482 361 29.1487 360.9 28.7494C360 26.5532 360.9 24.6566 363.2 23.9578C364.2 23.6583 365.2 23.6583 366.1 24.1574C367.3 24.8562 367.9 26.2538 367.6 27.5515C367.3 29.0489 366.5 30.0471 365 30.5462C364.6 30.6461 364.1 30.8457 363.7 30.9455C361.4 34.7389 358.5 38.0331 354 39.9298C356.5 40.8282 358.7 41.4271 360.7 42.7249C362.7 43.9228 364.3 45.6198 365.8 47.4166C366.6 47.217 367.4 46.9175 368.2 46.8177C370.5 46.5182 372.2 48.0156 372.2 50.4114C372.2 52.5077 370.6 54.5042 368.5 55.1032C365.8 55.8019 363.5 53.8054 363.9 51.0103C364 50.4114 364.2 49.8124 364.4 49.2135C363 46.8177 360.9 45.1207 358.5 43.8229C356.1 42.625 353.6 41.8265 350.9 41.3273C350.1 41.1277 349.3 41.0279 348.5 40.8282C347.8 40.6286 347.6 40.0296 348.1 39.4307C348.4 39.1312 348.7 38.9315 349.1 38.8317C350.2 38.5322 351.3 38.3326 352.4 38.0331C354.6 37.4342 356.4 36.3361 358 34.6391C359.3 33.2415 360.5 31.7441 361.4 29.8475Z" fill="#A8A5A5"/>
<path d="M379.4 26.3538C377.3 24.4571 376.7 22.9597 377.5 21.2627C378.1 19.965 379.6 19.1664 381.3 19.2662C382.6 19.366 383.7 20.3643 384.1 21.7618C384.6 23.6585 384 24.9562 381.8 26.4536C381.1 29.9475 379.3 32.9422 376.8 35.7373C378.4 36.0368 379.7 36.2364 381.1 36.6357C382.5 37.035 383.9 37.634 385.2 38.2329C386.5 38.8319 387.6 39.6305 388.9 40.3293C389.5 40.0298 390 39.6305 390.6 39.331C391.1 39.0315 391.7 38.8319 392.3 38.7321C394.1 38.4326 395.6 39.6305 395.8 41.4273C396.1 43.5236 394.8 45.4203 392.6 46.1191C390.1 46.9177 388.2 45.7198 387.8 43.1243C387.8 42.8249 387.7 42.6252 387.7 42.3258C385 40.4291 382.2 38.7321 378.9 38.1331C376.7 37.7338 374.5 37.634 372.4 38.2329C372 38.3328 371.5 38.5324 371 38.5324C370.6 38.5324 370.2 38.3328 369.9 38.2329C369.6 38.0333 369.6 37.3345 369.9 37.1349C370.2 36.9352 370.5 36.8354 370.8 36.7356C373.2 36.1366 375.1 34.6392 376.6 32.7426C378 30.7461 378.9 28.6497 379.4 26.3538Z" fill="#A8A5A5"/>
<path d="M395.6 16.3711C395 16.0716 394.5 15.9718 394.2 15.6723C392.9 14.8737 392.4 13.7757 392.6 12.2783C392.8 10.8807 393.6 9.98232 394.9 9.58302C396.1 9.18372 397.3 9.18372 398.2 10.2818C399.1 11.28 399.3 12.9771 398.7 14.175C398.5 14.4744 398.3 14.6741 398.1 14.9736C397.9 15.273 397.8 15.6723 397.8 16.0716C397.8 16.3711 397.8 16.7704 397.8 17.0699C398 20.0646 397.3 22.8597 395.9 25.555C395.7 25.8545 395.6 26.1539 395.5 26.4534C395.5 26.5532 395.5 26.5532 395.5 26.7529C397.5 26.4534 399.6 26.1539 401.6 26.6531C403.6 27.1522 405.6 27.7511 407.8 28.3501C408.7 27.851 409.8 27.4517 411.1 27.5515C413.3 27.5515 414.6 29.8475 414 31.844C413.5 33.1417 412.6 34.0401 411.2 34.4394C409 35.0384 407 33.8405 406.6 31.5445C406.5 31.1452 406.5 30.7459 406.5 30.3466C403.6 29.2485 400.7 28.2503 397.6 28.4499C396.2 28.5497 395 28.8492 393.8 29.4482C392.7 30.0471 391.6 30.6461 390.4 31.1452C389.8 31.4447 389.1 31.5445 388.5 31.6443C388.3 31.6443 388 31.4447 387.9 31.245C387.8 31.0454 387.9 30.6461 388.1 30.5462C388.4 30.2468 388.8 30.1469 389.1 29.9473C393.5 27.4517 395.7 23.6583 395.8 18.6671C395.8 17.9683 395.7 17.2695 395.6 16.3711Z" fill="#A8A5A5"/>
<path d="M407.4 5.68942C408.5 9.08346 408.4 12.6772 407.1 16.2709C408.1 16.171 408.5 15.4723 409.2 15.2726C409.9 14.9731 410.7 14.6737 411.4 14.3742C412.1 14.1745 412.8 13.9749 413.5 13.8751C414.2 13.7752 415 13.6754 415.7 13.6754C416.5 13.6754 417.3 13.6754 418.1 13.7752C418.8 13.8751 419.6 13.9749 420.4 13.9749C421.1 13.1763 421.8 12.3777 422.8 11.9784C424.1 11.4793 425.1 11.5791 426 12.777C428 15.2726 426.4 17.8681 424.3 18.6667C423 19.1658 421.6 18.7665 420.8 17.5686C420.5 17.1693 420.3 16.6702 420.1 16.171C413.6 15.073 410.6 15.8716 405.8 19.8645C405.2 19.7647 404.7 19.7647 404.1 19.6649C403.6 19.5651 403.4 19.0659 403.7 18.5668C404.2 17.9679 404.7 17.2691 405 16.5703C406.4 13.9749 406.6 11.2796 406.1 8.38469C406 7.78574 405.8 7.08696 405.6 6.38819C405.1 6.18854 404.5 6.08872 404.1 5.88907C402.5 5.19029 401.8 3.49327 402.4 1.89607C403 0.199049 404.8 -0.699375 406.4 -0.100425C407.8 0.398699 408.7 2.19555 408.3 3.69292C408 4.49152 407.7 4.99064 407.4 5.68942Z" fill="#A8A5A5"/>
<path d="M417.1 0.0998535C417.4 0.199678 418.1 0.299503 418.6 0.598978C420 1.29775 420.6 2.79513 420.2 4.2925C419.8 5.8897 418.5 6.98777 417 6.98777C415 6.98777 413.1 4.6918 413.5 2.6953C413.7 1.0981 415 0.0998535 417.1 0.0998535Z" fill="#A8A5A5"/>
<path d="M164.9 30.1471C166.2 32.5429 166.2 33.8407 164.7 35.2382C163.3 36.5359 161.5 36.8354 159.9 35.937C158.3 35.1384 157.6 33.4414 157.9 31.7443C158.1 30.6463 158.7 29.8477 159.7 29.2487C160.7 28.6498 161.8 28.9492 162.8 28.8494C171.4 17.669 171 19.0666 176.4 15.2732C175 14.5745 173.4 14.4746 172 14.0753C170.6 13.5762 169.2 13.1769 167.8 12.7776C166.3 12.2785 164.9 11.7794 163.5 11.2802C162.1 10.7811 160.8 10.1822 159.3 9.68304C158.9 9.98252 158.5 10.282 158.1 10.5815C156.8 11.3801 155.6 11.3801 154.3 10.5815C153 9.78287 152.3 8.6848 152.4 7.0876C152.5 5.29075 154.5 3.59373 156.3 3.79338C157.4 3.8932 158.2 4.39233 158.7 5.39058C159.1 6.18917 159.4 6.98777 159.8 7.8862C160.2 7.98602 160.6 8.18567 161 8.2855C165.4 9.68304 169.8 10.9808 174.2 12.2785C175.9 12.7776 177.7 13.0771 179.5 13.2767C180.6 13.3766 181.8 13.1769 182.9 13.1769C183.1 13.1769 183.3 13.0771 183.5 13.1769C183.7 13.1769 183.9 13.3766 184 13.4764C184.1 13.676 184.1 13.9755 184 14.1752C183.6 14.7741 183 15.0736 182.3 15.0736C181.2 15.1734 180.3 15.7724 179.4 16.2715C176.1 18.0683 173.2 20.3643 170.7 23.2592C168.7 25.5552 166.8 27.8512 164.9 30.1471Z" fill="#A8A5A5"/>
<path d="M159.3 21.9615C156.4 24.3573 153.3 26.4536 150.9 29.3486C148.5 32.1437 146.2 34.9387 143.8 37.7338C144.1 38.233 144.3 38.6323 144.6 39.0316C145.2 40.1296 145.1 41.2277 144.4 42.226C142.7 45.0211 139.2 45.3205 137.1 42.9247C136.1 41.7268 135.8 40.3293 136.4 38.8319C137 37.4344 138.2 36.7356 139.7 36.6358C140.4 36.5359 141 36.7356 141.8 36.7356C142 36.4361 142.3 36.1366 142.6 35.7373C144.2 33.641 145.8 31.4449 147.5 29.4484C149.4 27.0526 151.7 25.0561 154.2 23.2592C154.6 22.9598 154.9 22.6603 155.4 22.261C153 21.662 150.8 21.1629 148.7 20.6638C146.6 20.0648 144.5 19.4659 142.4 18.8669C141.8 19.2662 141.4 19.5657 140.8 19.8652C139.5 20.564 138 20.3643 136.9 19.3661C135.5 18.0683 135.3 15.5727 136.4 14.0753C137.7 12.2785 140.3 12.1787 141.7 13.9755C142.3 14.7741 142.7 15.7724 143.4 16.9703C143.3 16.8704 143.4 17.0701 143.6 17.0701C147 17.8687 150.4 18.7671 153.9 19.4659C156.4 19.965 158.9 20.0648 161.4 19.3661C161.5 19.3661 161.7 19.2662 161.8 19.3661C162 19.4659 162.2 19.4659 162.3 19.6655C162.4 19.8652 162.5 20.2645 162.4 20.3643C162.2 20.6638 161.9 21.0631 161.6 21.1629C160.8 21.4624 160 21.662 159.3 21.9615Z" fill="#A8A5A5"/>
<path d="M124.4 45.021C124.5 45.2207 124.7 45.5201 124.9 45.8196C126 47.5166 125.5 50.0123 122.7 50.8109C121.2 51.2102 119.8 50.9107 118.5 50.0123C117.3 49.1138 116.8 47.7163 117.2 46.3187C117.7 44.8214 118.9 43.8231 120.4 43.8231C120.9 43.8231 121.5 43.9229 122 43.9229C123.1 42.2259 124.2 40.4291 125.4 38.732C126.6 36.9352 127.9 35.2382 129.5 33.8406C131 32.4431 132.6 31.2452 134.2 29.8476C132.1 29.1489 130 28.6497 127.9 27.8511C125.9 27.1524 123.9 26.3538 121.9 25.4553C121.5 25.7548 121.1 26.0543 120.7 26.3538C119.3 27.1524 117.8 27.0525 116.7 25.9545C115.4 24.7566 114.9 23.359 115.4 21.662C115.7 20.3643 116.5 19.366 117.9 19.0665C119.2 18.7671 120.2 19.2662 121 20.3643C121.7 21.2627 122.5 22.0613 122.6 23.359C127.2 24.9562 131.6 27.1524 136.5 27.5517C137.8 27.6515 139 27.5517 140.3 27.5517C141 27.5517 141.6 27.4518 142.3 27.4518C142.6 27.4518 142.9 27.7513 143 27.951C143.2 28.3503 143 28.7496 142.6 28.9492C142.3 29.049 142 29.2487 141.7 29.3485C141.3 29.4483 140.8 29.648 140.3 29.648C138.8 29.648 137.5 30.3468 136.3 31.2452C135 32.1436 133.7 33.1419 132.6 34.2399C129.5 37.2347 127 40.8284 124.7 44.5219C124.5 44.5219 124.5 44.7215 124.4 45.021Z" fill="#A8A5A5"/>
<path d="M103.8 27.7513C105.6 29.2487 107.4 30.7461 109.2 32.1436C111.4 33.7408 113.9 34.6392 116.6 34.9387C117 34.9387 117.4 35.0385 117.8 35.1383C118.3 35.2382 118.7 35.6375 118.5 35.9369C118.4 36.2364 118.1 36.4361 117.8 36.5359C117.1 36.7355 116.4 36.7355 115.7 36.8354C115.3 37.2347 115 37.634 114.7 37.7338C112.7 38.3327 111.4 39.7303 110.3 41.3275C109.5 42.4256 108.9 43.6235 108.4 44.8214C107.8 46.3187 107.4 47.8161 106.9 49.3135C107.2 49.613 107.4 49.9124 107.6 50.1121C109.6 52.6077 108.3 56.0017 105.2 56.5009C102.1 57.0998 99.2999 54.1051 99.9999 51.1103C100.4 49.3135 101.6 48.4151 103.4 48.4151C103.7 48.4151 104.1 48.4151 104.5 48.4151C104.7 48.0158 104.8 47.7163 105 47.317C105.3 46.3187 105.6 45.3205 106 44.3222C107.2 41.028 109.1 38.3327 112.3 36.6357C112.4 36.5359 112.5 36.4361 112.6 36.3362C112.6 36.3362 112.6 36.2364 112.7 36.0368C108.5 34.9387 105.5 31.8441 102.3 29.1489C101.8 29.2487 101.2 29.3485 100.7 29.4483C98.7999 29.5482 97.2999 28.7496 96.2999 27.1524C95.2999 25.5552 95.8999 23.359 97.4999 22.2609C99.0999 21.1629 101.3 21.5622 102.5 23.1594C103.5 24.3573 103.8 25.5552 103.8 27.7513Z" fill="#A8A5A5"/>
<path d="M83.0999 32.443C82.5999 32.443 82.0999 32.5428 81.6999 32.5428C80.0999 32.5428 79 31.844 78.3 30.5463C77.5 29.2486 77.7 27.851 78.5 26.5533C79.4 25.0559 81.3 24.5568 82.9 25.4552C84.3 26.2538 85.2 28.1505 85 29.8475C85 30.147 84.9 30.3467 84.8 30.746C85.1 31.0454 85.4 31.3449 85.8 31.6444C87.3 32.8423 88.8 34.0402 90.4 35.1383C92.9 36.9351 95.7 37.8335 98.8 38.0332C99.1 38.0332 99.3 38.0332 99.6 38.0332C100 38.0332 100.2 38.2328 100.3 38.6321C100.4 39.0314 100.1 39.4307 99.6999 39.5306C99 39.6304 98.3 39.7302 97.5 39.7302C97 39.7302 96.6 39.6304 96.4 39.6304C95.4 40.2293 94.6 40.7285 93.8 41.1278C91.4 42.2258 89.4 43.823 87.8 45.9193C86.6 47.5165 85.5 49.1137 84.3 50.7109C84.5 51.3099 84.7 51.809 84.8 52.3081C85.2 53.8055 84.7999 55.1032 83.5999 56.0017C82.4999 56.9001 80.8 56.9999 79.5 56.3011C77.2999 55.1032 76.5 52.0087 77.8 49.9123C78.6 48.6146 79.8 48.0157 81.3 48.2153C81.8 48.3151 82.1999 48.415 82.6999 48.6146C82.9999 48.3151 83.3 47.9158 83.5 47.6164C84 46.8178 84.5999 46.119 85.0999 45.3204C86.8999 42.8248 89.2 40.9281 92 39.7302C92.3 39.5306 92.7 39.4307 93.1 39.1313C92.8 38.6321 92.3 38.6321 91.9 38.3327C91.6 38.133 91.2 38.0332 90.8 37.8335C90.4 37.6339 90 37.3344 89.6 37.1348C89.2 36.8353 88.8 36.6356 88.4 36.3362C88.1 36.1365 87.8 35.837 87.4 35.6374C87 35.3379 86.7 35.0384 86.3 34.739C85.9 34.4395 85.5999 34.14 85.1999 33.8405C84.8999 33.5411 84.6 33.3414 84.3 33.0419C83.8 33.0419 83.4999 32.7425 83.0999 32.443Z" fill="#A8A5A5"/>
<path d="M62.4997 49.1138C62.6997 49.7127 62.8997 50.3117 62.9997 50.9106C63.3997 53.9054 60.9997 55.9019 58.0997 54.9036C55.7997 54.105 54.2997 51.4098 54.8997 49.2136C55.3997 47.5166 56.6997 46.5183 58.4997 46.8178C59.2997 46.9176 59.9997 47.2171 60.8997 47.4168C61.8997 46.4185 62.9997 45.2206 64.1997 44.1225C65.2997 43.1243 66.6997 42.3257 68.0997 41.7267C69.5997 41.1278 71.0997 40.6287 72.7997 39.9299C68.3997 38.0332 65.5997 34.8388 63.1997 30.9457C62.7997 30.8458 62.1997 30.746 61.6997 30.5464C60.2997 30.0472 59.3997 28.9492 59.1997 27.4518C58.8997 25.8546 59.7997 24.3572 61.3997 23.8581C62.7997 23.4588 64.1997 23.8581 65.2997 24.8563C66.3997 25.9544 66.4997 27.352 65.9997 28.7495C65.8997 29.1488 65.5997 29.4483 65.3997 29.8476C67.6997 34.1401 70.7997 37.5341 75.8997 38.5323C76.5997 38.6322 77.1997 38.732 77.7997 38.9316C78.1997 39.0315 78.4997 39.3309 78.6997 39.6304C79.0997 40.1295 78.8997 40.7285 78.2997 40.8283C77.4997 41.028 76.6997 41.1278 75.9997 41.3274C73.3997 41.8266 70.9997 42.5253 68.5997 43.7232C66.0997 44.9211 63.9997 46.718 62.4997 49.1138Z" fill="#A8A5A5"/>
<path d="M37.9998 40.1297C39.2998 39.4309 40.4998 38.6323 41.6998 38.0334C42.9998 37.4344 44.3998 36.8355 45.7998 36.4362C47.0998 36.0369 48.4998 35.9371 49.8998 35.6376C46.2998 30.9458 46.1998 30.4467 44.8998 26.3539C42.6998 24.9563 42.0998 23.5588 42.5998 21.7619C42.9998 20.2645 44.1998 19.2663 45.5998 19.1665C47.4998 19.0666 48.8998 19.9651 49.3998 21.4624C49.9998 23.1595 49.3998 24.4572 47.3998 26.1542C47.4998 26.5535 47.4998 27.1525 47.6998 27.6516C48.4998 30.0474 49.5998 32.3434 51.5998 34.0404C52.7998 35.1385 54.0998 35.9371 55.6998 36.4362C55.9998 36.536 56.1998 36.536 56.4998 36.6358C56.8998 36.8355 57.1998 37.0351 57.0998 37.5342C56.9998 37.9335 56.6998 38.233 56.1998 38.233C55.6998 38.233 55.2998 38.233 54.7998 38.1332C50.9998 37.0351 47.2998 37.6341 43.6998 39.3311C41.9998 40.1297 40.4998 41.1279 38.8998 42.1262C38.7998 42.7251 38.7998 43.2243 38.6998 43.6236C38.3998 45.0211 37.1998 46.0194 35.6998 46.1192C33.5998 46.3188 31.5998 45.0211 30.9998 43.1244C30.5998 41.9265 30.7998 40.7286 31.4998 39.7304C32.2998 38.5325 33.8998 38.1332 35.3998 38.832C36.3998 39.1314 37.0998 39.6306 37.9998 40.1297Z" fill="#A8A5A5"/>
<path d="M20.2999 30.2469C20.1999 30.8458 20.1999 31.2451 20.1999 31.6444C19.7999 33.6409 18.1999 34.8388 16.0999 34.5393C14.4999 34.3397 13.3999 33.3414 12.7999 31.9439C11.9999 29.8476 13.3999 27.6514 15.6999 27.5516C16.8999 27.4518 18.0999 27.7513 19.0999 28.5499C22.9999 26.9527 26.8999 25.8546 31.0999 26.8528C31.4999 26.4535 31.1999 26.1541 30.9999 25.9544C29.3999 23.0595 28.5999 20.0647 28.8999 16.7705C28.9999 15.8721 28.6999 15.2731 28.1999 14.5744C27.2999 13.3765 27.4999 12.0787 28.1999 10.781C28.7999 9.68295 29.8999 9.28365 31.0999 9.4833C33.1999 9.8826 34.3999 11.2801 34.1999 13.1768C34.0999 14.2749 33.4999 15.1733 32.4999 15.7723C32.0999 15.9719 31.6999 16.1716 31.1999 16.3712C30.5999 18.9667 30.9999 21.4623 31.9999 23.7583C33.1999 26.4535 34.9999 28.6497 37.6999 29.9474C37.8999 30.0472 38.1999 30.147 38.3999 30.3467C38.7999 30.6462 38.9999 31.0455 38.7999 31.3449C38.5999 31.7442 38.1999 31.7442 37.7999 31.7442C37.2999 31.6444 36.8999 31.5446 36.4999 31.3449C35.4999 30.8458 34.3999 30.4465 33.4999 29.8476C30.9999 28.45 28.2999 28.3502 25.5999 28.8493C23.7999 29.1488 22.0999 29.7477 20.2999 30.2469Z" fill="#A8A5A5"/>
<path d="M21.2999 6.58842C20.0999 10.1821 20.0999 13.676 21.8999 16.9702C22.1999 17.5692 22.6999 18.1681 23.0999 18.7671C23.3999 19.1664 23.1999 19.7653 22.6999 19.8651C22.1999 19.965 21.6999 19.965 20.9999 20.0648C20.5999 19.7653 19.9999 19.366 19.4999 18.9667C16.4999 16.4711 13.0999 15.5727 9.29992 15.972C8.69992 15.8721 7.99992 15.972 7.29992 15.972C7.09992 15.972 6.89992 16.0718 6.69992 16.1716C6.49992 16.6707 6.29992 17.1699 5.99992 17.5692C5.29992 18.6672 4.09992 19.1664 2.89992 18.8669C1.49992 18.4676 0.39992 17.5692 0.09992 16.0718C-0.30008 14.5744 0.29992 13.2767 1.39992 12.2784C1.99992 11.6795 2.79992 11.5797 3.59992 11.8791C4.69992 12.2784 5.59992 12.8774 6.19992 14.0753C6.99992 13.9755 7.59992 13.9755 8.29992 13.8756C10.2999 13.676 12.2999 13.676 14.2999 14.0753C15.7999 14.4746 17.1999 14.8739 18.4999 15.7723C18.7999 15.972 19.1999 16.1716 19.6999 16.4711C19.4999 15.8721 19.4999 15.4728 19.2999 15.1734C18.3999 12.3783 18.2999 9.58317 19.0999 6.68825C19.2999 5.88965 19.2999 5.2907 18.8999 4.59193C18.2999 3.49385 18.4999 2.4956 18.9999 1.39753C19.8999 -0.299492 22.3999 -0.399316 23.5999 0.798582C25.3999 2.59543 24.7999 5.59018 22.3999 6.18913C22.0999 6.38877 21.7999 6.38877 21.2999 6.58842Z" fill="#A8A5A5"/>
<path d="M13.3999 3.19467C13.3999 5.09134 11.5999 6.98801 9.7999 6.98801C7.8999 6.98801 6.3999 5.29099 6.3999 3.39432C6.3999 1.39782 7.9999 0.100098 10.0999 0.100098C12.0999 0.199923 13.3999 1.39782 13.3999 3.19467Z" fill="#A8A5A5"/>
</g>
<defs>
<clipPath id="clip0">
<rect width="426.8" height="57" fill="white"/>
</clipPath>
</defs>
</svg>
