<svg width="48" height="50" viewBox="0 0 48 50" fill="none" xmlns="http://www.w3.org/2000/svg">
<path d="M33.2818 26.6519C33.0009 26.5429 32.7201 26.465 32.4236 26.4183C31.6278 26.2937 29.8334 26.0135 29.8178 26.0135C27.961 25.8578 24.0445 26.6051 23.7324 26.792C23.67 26.8387 23.1707 26.9944 22.9522 26.792C22.7962 26.6363 22.6246 26.4183 23.0458 25.9979C23.4515 25.5931 23.6076 25.5463 24.8247 23.6779C25.4488 22.7437 25.7297 22.5257 26.229 22.2765C27.1496 21.825 28.1014 21.498 29.0376 21.1866C29.7554 20.953 31.3781 19.3181 31.3781 19.3181C32.3144 18.5396 33.4066 16.0483 33.4066 16.0483C33.7187 15.2698 33.0945 15.2698 32.1583 15.4255C31.815 15.4878 31.3781 15.5812 30.91 15.8926C29.9114 16.5622 27.6489 18.2126 27.6333 18.2282C27.6177 18.2438 26.6971 19.0067 25.7609 20.5638C25.3864 21.1866 24.8715 22.261 24.575 22.8838C24.419 23.2108 24.2317 23.5066 24.0133 23.7869L22.0316 26.2937C21.7039 26.7764 21.4075 26.9321 21.3919 26.9321C21.0798 27.0878 20.9238 26.9321 20.9238 26.3093C20.9238 25.3751 21.1578 24.0516 22.3281 22.8838C23.4671 21.7471 23.5296 19.5361 23.5296 19.4583C23.5452 19.3649 23.2955 17.4185 23.5296 16.5154C23.7792 15.5345 23.2331 12.7007 22.7962 12.327C22.7962 12.327 22.3905 12 22.2189 12C22.0784 12 21.938 12.0623 21.86 12.1713C21.1734 13.0432 19.8315 15.7369 19.6755 17.1383C19.5507 18.2282 19.5194 18.851 19.5194 19.941C19.5194 21.0309 19.5975 23.7557 20.1436 24.3007C20.6585 24.8145 20.3308 27.3214 20.2996 27.5549C20.2996 27.5705 19.9876 28.1778 19.9876 28.1933C19.8315 28.5047 19.4882 28.8473 19.2074 29.2833C18.8953 29.7504 18.6144 30.3732 17.9591 30.3732C17.8031 30.3732 17.7406 29.9684 17.8031 29.9061C17.8031 29.9061 18.1151 29.2988 18.1151 29.2833C18.1775 29.1431 18.4272 28.5047 18.2712 27.5705C18.2087 27.1968 17.9903 26.3249 16.2427 26.3249C14.9944 26.3249 15.2753 28.349 15.3065 28.5047C15.4625 29.1276 15.6654 29.5635 15.9618 29.7192C16.3987 29.9061 16.6172 30.0151 16.7888 30.4511C16.9917 30.9649 16.8668 31.7745 16.3987 32.5531C16.0555 33.1136 14.9476 34.6084 14.6979 34.8575C14.6823 34.8731 14.5263 35.0444 14.5263 35.2312C14.5263 35.3558 14.6667 35.4336 14.776 35.3713C14.854 35.3246 14.9164 35.2935 14.932 35.2623L15.5405 34.6551L17.3349 32.5531L20.7677 29.439C20.7677 29.439 21.3139 29.0497 21.7039 29.439C22.0784 29.8127 23.2175 29.9061 23.2643 29.9061C24.8247 30.0618 25.7609 30.2175 28.9128 29.7348C29.3497 29.7504 33.8747 27.7262 33.8747 27.2591C33.8903 26.9633 33.6095 26.792 33.2818 26.6519ZM27.8049 19.0067C28.4291 18.3683 29.0532 17.9168 29.0532 17.9168C29.3809 17.6677 30.1299 17.1071 30.6136 16.6712C30.6916 16.6089 30.832 16.4687 31.0817 16.3597C31.2533 16.2819 31.4094 16.2507 31.7058 16.204C32.1739 16.1262 32.3924 16.095 32.486 16.204C32.5172 16.2507 32.5328 16.3286 32.486 16.5154C32.3768 16.9203 32.1271 17.1538 31.8619 17.4497C31.3781 17.9946 31.5342 17.9479 31.2377 18.2282C30.7384 18.6797 30.4887 18.633 30.3015 19.0067C30.2547 19.1002 30.1767 19.287 29.9894 19.4738C29.8022 19.6607 29.7086 19.6295 29.6774 19.6295C29.5837 19.614 29.5369 19.505 29.5213 19.4738C29.4121 19.2403 29.5993 19.1002 29.5213 18.851C29.4745 18.7109 29.3497 18.5396 29.2093 18.5396C29.0688 18.5396 29.022 18.6953 28.7411 19.0067C28.5071 19.2714 28.3511 19.4427 28.117 19.4738C27.9298 19.505 27.6957 19.4427 27.6489 19.3181C27.6177 19.2091 27.7425 19.069 27.8049 19.0067ZM17.5066 28.5047C17.4598 28.6293 17.3818 28.6449 17.1945 28.8162C16.9761 29.0186 16.9761 29.1276 16.8824 29.1276C16.742 29.1276 16.6016 28.8784 16.5704 28.6604C16.5392 28.4269 16.6328 28.3646 16.5704 28.1933C16.5392 28.131 16.4455 28.0376 16.2583 27.8819C16.0555 27.7106 15.993 27.6795 15.9462 27.5705C15.9306 27.5394 15.8682 27.3837 15.9462 27.2591C16.0086 27.1501 16.1335 27.1345 16.2583 27.1034C16.3519 27.0878 16.5236 27.0567 16.7264 27.1034C16.898 27.1345 17.1633 27.1812 17.3506 27.4148C17.3818 27.4459 17.4754 27.5549 17.5066 27.7262C17.5378 27.8663 17.5066 27.9131 17.5066 28.1933C17.5066 28.4269 17.5378 28.4269 17.5066 28.5047ZM20.7833 23.3665C20.6429 23.3665 20.5181 22.8994 20.4713 22.5879C20.4088 22.1831 20.4557 21.8561 20.4713 21.8094C20.6429 20.7351 20.3308 20.2057 20.4713 18.3839C20.5337 17.6054 20.5805 17.7767 20.6273 17.1383C20.6429 16.7957 20.6429 16.5933 20.7833 16.3597C20.8926 16.1885 20.9862 16.1418 21.0954 15.8926C21.1422 15.7992 21.1422 15.7836 21.2514 15.4255C21.3295 15.1764 21.3763 15.0518 21.4075 14.9584C21.5479 14.6158 21.5947 14.6314 21.7195 14.3356C21.9068 13.884 21.8444 13.666 22.0316 13.5571C22.1252 13.5103 22.2657 13.4948 22.3437 13.5571C22.4529 13.6505 22.3749 13.884 22.3437 14.0242C22.2345 14.4913 22.4217 14.6003 22.4997 15.4255C22.5777 16.2663 22.3905 16.2196 22.4997 16.8269C22.5777 17.2317 22.6558 17.2317 22.8118 17.9168C22.921 18.3995 22.9522 18.7265 22.9678 18.851C22.999 19.2403 22.9834 19.4738 22.9678 19.7853C22.9366 20.2835 22.8742 20.3614 22.8118 20.4081C22.6402 20.5171 22.3593 20.4081 22.1877 20.2524C22.094 20.1589 22.0472 20.0655 21.8756 19.3181C21.782 18.9133 21.7508 18.7109 21.5635 18.5396C21.5011 18.4773 21.3607 18.3372 21.2514 18.3839C21.189 18.415 21.0798 18.524 21.2514 19.941C21.3763 20.9219 21.4387 20.9686 21.4075 21.3423C21.3919 21.5447 21.2982 21.8873 21.0954 22.5879C20.9082 23.2419 20.8614 23.3665 20.7833 23.3665ZM32.0959 27.6484C32.0647 27.8508 31.8463 27.9909 31.6278 28.1155C31.3001 28.3023 31.0973 28.3179 30.6916 28.4269C30.2391 28.5515 30.3015 28.5826 29.4433 28.894C28.9596 29.0653 28.5851 29.1743 28.5071 29.2054C27.8361 29.4078 27.4617 29.3611 24.9183 29.3611C24.9183 29.3611 24.5126 29.3611 23.0458 29.2054C22.5465 29.1587 22.1877 29.112 22.1096 28.894C22.0316 28.6916 22.2813 28.4113 22.4217 28.2712C22.8586 27.8041 23.3735 27.6328 23.826 27.4927C24.9495 27.1345 25.5112 26.9477 26.0105 26.8698C26.2758 26.8231 26.9155 26.792 28.195 26.7141C28.195 26.7141 28.7099 26.683 30.3795 26.7141C30.7228 26.7141 31.1909 26.7297 31.6278 27.0255C31.7526 27.1034 32.1271 27.3525 32.0959 27.6484Z" fill="#766045"/>
<path d="M23.8413 46.3413L26.5939 45.5446L26.8397 46.3939L24.0871 47.1906L23.8413 46.3413Z" fill="#766045"/>
<path d="M29.6169 43.7786C30.5112 43.1997 31.277 42.9452 31.9143 43.0149C32.5537 43.0748 33.0625 43.3968 33.4407 43.9811C33.6799 44.3508 33.8066 44.7425 33.8207 45.1564C33.8369 45.5604 33.722 45.9647 33.4762 46.3691C33.2325 46.7637 32.8513 47.1289 32.3326 47.4646C31.8915 47.7501 31.4227 47.9605 30.9265 48.0956C30.4263 48.2247 29.9649 48.2569 29.5423 48.192L29.4964 47.2193C29.8422 47.2831 30.2226 47.2695 30.6375 47.1786C31.0486 47.0818 31.4389 46.9137 31.8085 46.6745C32.2795 46.3696 32.5795 46.0358 32.7086 45.6732C32.8397 45.3007 32.7933 44.9415 32.5695 44.5957C32.3264 44.2201 32 44.0295 31.5904 44.024C31.1768 44.0125 30.6243 44.2305 29.9327 44.6782L28.5108 45.5985L26.7231 42.1112L30.2556 39.8248L30.7592 40.6029L27.9779 42.403L28.9194 44.2301L29.6169 43.7786Z" fill="#766045"/>
<path d="M39.0019 43.1045C38.6419 43.5713 38.2029 43.8964 37.6848 44.0798C37.1654 44.2532 36.5977 44.2684 35.9817 44.1252C35.3657 43.982 34.7456 43.6697 34.1214 43.1883C33.4971 42.7069 33.0375 42.1865 32.7424 41.6271C32.4473 41.0678 32.3205 40.517 32.3618 39.975C32.4019 39.4229 32.6019 38.9135 32.9619 38.4467C33.3175 37.9856 33.755 37.6683 34.2744 37.4949C34.7925 37.3115 35.3595 37.2914 35.9755 37.4346C36.5915 37.5778 37.2117 37.8901 37.8359 38.3715C38.4602 38.8528 38.9198 39.3732 39.2149 39.9326C39.5099 40.492 39.6374 41.0477 39.5974 41.5997C39.556 42.1418 39.3575 42.6434 39.0019 43.1045ZM38.2511 42.5256C38.6154 42.0532 38.712 41.5267 38.5408 40.9463C38.3739 40.3602 37.9221 39.7832 37.1854 39.215C36.4487 38.6469 35.7757 38.3566 35.1665 38.3442C34.5616 38.3261 34.077 38.5533 33.7127 39.0257C33.344 39.5037 33.2432 40.0358 33.41 40.6218C33.5812 41.2023 34.0352 41.7766 34.7719 42.3447C35.5086 42.9128 36.1794 43.2059 36.7843 43.224C37.3936 43.2364 37.8825 43.0036 38.2511 42.5256Z" fill="#766045"/>
<path d="M40.8644 36.7892C40.7432 37.2933 40.4623 37.6567 40.0216 37.8795C39.5809 38.1022 39.0671 38.143 38.4802 38.0019C37.8933 37.8609 37.4542 37.5909 37.1629 37.1922C36.8716 36.7935 36.7866 36.3421 36.9078 35.8381C37.0289 35.334 37.309 34.974 37.748 34.7582C38.1818 34.5338 38.6956 34.493 39.2894 34.6357C39.8833 34.7785 40.3258 35.0492 40.6171 35.4479C40.9031 35.838 40.9856 36.2852 40.8644 36.7892ZM38.0207 31.4821L38.2124 30.6845L44.2725 37.3785L44.0808 38.176L38.0207 31.4821ZM40.274 36.6473C40.3504 36.3297 40.2893 36.052 40.0908 35.8144C39.8853 35.5751 39.5651 35.4032 39.1301 35.2986C38.6951 35.194 38.3351 35.2024 38.0503 35.3239C37.7585 35.4437 37.5745 35.6624 37.4981 35.98C37.4234 36.2907 37.488 36.5692 37.6917 36.8154C37.8972 37.0547 38.2139 37.2258 38.6421 37.3287C39.0702 37.4316 39.4301 37.4232 39.7218 37.3034C40.0152 37.1767 40.1993 36.958 40.274 36.6473ZM45.3855 33.0225C45.2643 33.5265 44.9868 33.8908 44.553 34.1152C44.114 34.331 43.5976 34.3676 43.0038 34.2248C42.4099 34.0821 41.97 33.8156 41.684 33.4255C41.3927 33.0268 41.3077 32.5754 41.4288 32.0713C41.55 31.5672 41.8309 31.2038 42.2716 30.9811C42.7123 30.7583 43.2261 30.7175 43.813 30.8586C44.3999 30.9997 44.839 31.2696 45.1303 31.6683C45.4216 32.067 45.5066 32.5184 45.3855 33.0225ZM44.7951 32.8805C44.8698 32.5698 44.8044 32.2948 44.599 32.0555C44.3952 31.8093 44.0793 31.6348 43.6512 31.5318C43.223 31.4289 42.8623 31.4408 42.5689 31.5675C42.2771 31.6873 42.0939 31.9025 42.0192 32.2132C41.9429 32.5309 42.0074 32.8093 42.2128 33.0486C42.4113 33.2863 42.7281 33.4574 43.1631 33.5619C43.5981 33.6665 43.9615 33.6589 44.2533 33.5391C44.5381 33.4177 44.7187 33.1982 44.7951 32.8805Z" fill="#766045"/>
<path fill-rule="evenodd" clip-rule="evenodd" d="M18.9788 47.4739C8.13443 45.1655 0 35.5327 0 24C0 10.7452 10.7452 0 24 0C37.2548 0 48 10.7452 48 24C48 25.5 47.8624 26.9678 47.5991 28.3916L47.0242 28.0188C47.2505 26.7132 47.3684 25.3704 47.3684 24C47.3684 11.094 36.906 0.631591 24 0.631591C11.094 0.631591 0.631579 11.094 0.631579 24C0.631579 35.1463 8.43539 44.4699 18.8774 46.8052L18.9788 47.4739Z" fill="#766045"/>
</svg>
