<svg xmlns="http://www.w3.org/2000/svg" width="112" height="80" fill="none" viewBox="0 0 112 80"><g clip-path="url(#A)" fill="#a8a5a5"><path d="M107.099 66.12c-.074 0-.124-.025-.173-.074a.28.28 0 0 1-.074-.197l.025-.197c.024-.099.074-.173.172-.197.989-.247 1.705-.74 2.15-1.455.321-.518.543-1.208.642-2.071.099-.74-.049-1.356-.42-1.874s-.889-.814-1.581-.888c-.099 0-.198-.025-.272-.025-.395 0-.815.123-1.186.345-.494.296-1.21 1.06-2.124 2.268-1.087 1.479-2.001 2.49-2.693 3.057-.939.764-1.927 1.134-2.965 1.134-.173 0-.346 0-.543-.025-1.186-.148-2.174-.814-2.94-2.022-.766-1.183-1.038-2.589-.84-4.166.099-.838.346-1.652.692-2.441l.692-1.307a.26.26 0 0 1 .222-.123l3.261-.099c.074 0 .124.025.173.074a.28.28 0 0 1 .074.197l-.049.345a.26.26 0 0 1-.222.222c-1.186.099-2.075.419-2.668.937-.568.518-.939 1.307-1.062 2.342-.124.986.025 1.824.445 2.515s1.013 1.06 1.828 1.159c.148.025.297.025.42.025.692 0 1.359-.222 1.977-.666.642-.468 1.482-1.405 2.52-2.811.766-1.011 1.482-1.775 2.149-2.293.766-.567 1.532-.838 2.298-.838a2.26 2.26 0 0 1 .395.025c1.26.148 2.224.715 2.841 1.652s.84 2.12.667 3.501c-.074.641-.296 1.331-.617 2.022-.297.641-.495 1.183-.544 1.652-.025.123-.123.222-.247.222l-2.421.074zm3.533-17.898c-.099 0-.198-.074-.247-.173l-.074-.247c-.272-.641-.494-.888-.643-.986-.099-.074-.222-.099-.395-.099-.148 0-.346.025-.544.099l-.42.123c-2.445.715-4.743 1.06-6.818 1.06-.569 0-1.137-.025-1.68-.074-2.841-.271-5.213-1.307-7.09-3.057-.074-.074-.099-.148-.074-.246.642-2.441 2.125-4.561 4.373-6.311 2.001-1.553 4.595-2.786 7.733-3.698l.42-.123c.395-.123.642-.271.766-.493.074-.148.148-.493.024-1.183l-.074-.246c-.049-.123.05-.271.173-.296l.321-.099h.075c.098 0 .197.074.247.173l.098.345.396 1.923.247.888.667 1.8.099.345c.024.074 0 .148-.025.197s-.099.099-.173.123l-.321.074h-.05c-.098 0-.197-.074-.247-.172l-.074-.247c-.272-.641-.494-.887-.642-.986-.099-.074-.222-.099-.395-.099a1.59 1.59 0 0 0-.544.099l-.346.099c-3.607 1.035-6.473 2.317-8.499 3.797-1.705 1.233-2.742 2.539-3.138 3.92 1.038.962 2.643 1.504 4.719 1.652l1.186.049c2.273 0 4.991-.444 8.055-1.331l.345-.099c.396-.123.643-.271.766-.493.074-.148.149-.493.025-1.183l-.074-.247c-.025-.074 0-.123.025-.197a.25.25 0 0 1 .148-.123l.321-.099h.074c.099 0 .198.074.247.173l.099.345.395 1.923.247.888.667 1.8.099.345c.025.074 0 .148-.025.197s-.098.099-.172.123l-.322.074c.074-.025.05-.025.05-.025zM88.767 34.293h-.049c-.074-.025-.124-.049-.173-.123l-.173-.321-1.062-1.627-.568-.74-1.26-1.479-.222-.296c-.049-.049-.049-.123-.049-.197s.049-.123.099-.173l.272-.172c.049-.025.099-.049.124-.049.074 0 .148.025.198.099l.148.197c.469.518.791.666.964.69h.099c.198 0 .469-.123.766-.345l9.734-7.297c.321-.247.519-.493.543-.74.025-.173-.025-.518-.395-1.109l-.148-.197c-.049-.049-.049-.123-.049-.172s.049-.123.099-.173l.272-.222c.049-.025.099-.049.148-.049h.049c.074 0 .123.049.173.099l.198.296 1.087 1.602.569.74 1.235 1.479.222.296c.05.049.05.123.05.197s-.05.123-.099.173l-.272.172c-.049.025-.099.049-.123.049-.075 0-.149-.025-.198-.099l-.148-.222c-.494-.518-.791-.666-.964-.715-.025 0-.074-.025-.124-.025-.198 0-.469.123-.766.32l-9.734 7.297c-.321.247-.494.493-.519.74-.025.173.049.518.395 1.134l.148.222c.074.099.049.271-.049.345l-.297.222c-.049.148-.099.173-.148.173zm14.082-12.031c-.049 0-.074 0-.123-.025-.42-.247-.84-.37-1.285-.37-.222 0-.444.025-.667.099h-.049c-.074 0-.148-.025-.198-.099l-.123-.148c-.05-.074-.074-.197-.025-.271.371-.616.445-1.257.272-1.948-.025-.099 0-.197.099-.247l.148-.123a.35.35 0 0 1 .148-.049c.049 0 .074 0 .124.025.42.247.84.37 1.284.37a2.08 2.08 0 0 0 .667-.099h.05c.074 0 .148.025.197.099l.124.148c.049.074.074.197.025.271-.371.616-.445 1.257-.272 1.948.024.099 0 .197-.099.247l-.148.123c-.05.049-.099.049-.149.049z"/><path d="M90.744 34.613c-.296 0-.667-.049-1.136-.123-.914-.173-1.779-.493-2.495-.962-1.655-1.085-3.014-2.958-4.027-5.572-.568-1.479-1.186-3.821-1.828-6.928-.519-2.515-.963-4.068-1.309-4.635l-1.606-1.036-2.644 4.043c-.222.345-.296.641-.247.887.049.173.198.468.741.912l.222.148c.123.074.148.222.074.345l-.198.296c-.049.049-.099.099-.173.099h-.049c-.049 0-.099-.025-.148-.049l-.272-.222-1.556-1.159-.791-.518-1.68-.937-.296-.197c-.049-.049-.099-.099-.099-.172s0-.148.049-.197l.198-.246c.049-.074.124-.099.198-.099a.19.19 0 0 1 .124.049l.222.148c.445.222.791.345 1.038.345h.099c.222-.025.469-.222.716-.592L80.54 8.012c.222-.345.296-.641.247-.888-.049-.173-.198-.468-.741-.912l-.222-.148c-.049-.025-.099-.099-.099-.148-.025-.074 0-.123.025-.197l.198-.296c.049-.049.099-.099.173-.099h.049c.049 0 .099.025.148.049l.272.222.741.592c.222.173.494.345.815.567l1.705 1.035 1.631.986c1.458.937 2.396 2.022 2.841 3.23.445 1.233.346 2.367-.321 3.353-.618.937-1.458 1.578-2.52 1.898-.544.173-1.136.247-1.729.247-.395 0-.791-.049-1.211-.123.198.641.445 1.75.766 3.402l1.334 5.572c.667 2.194 1.507 3.945 2.446 5.177.395.493.889.937 1.458 1.331.445.296.914.518 1.408.715.494.173.964.32 1.433.394a.27.27 0 0 1 .198.197c.025.098-.025.197-.099.246-.173.148-.395.197-.741.197zm-8.993-18.367a5.44 5.44 0 0 0 .889.074c.494 0 .988-.074 1.433-.246a3.41 3.41 0 0 0 1.779-1.405c.544-.838.716-1.726.494-2.687-.247-1.06-.939-1.972-2.1-2.712-.84-.542-1.161-.641-1.285-.641v-.247.247c-.049 0-.272.049-.618.592l-3.409 5.227 2.816 1.8zm-13.465 1.48l-.346-.049-1.927-.394-.914-.123-1.927-.099-.371-.049c-.074 0-.123-.049-.173-.099s-.049-.123-.049-.197l.074-.32a.24.24 0 0 1 .247-.197h.025l.272.025h.123c.618 0 .914-.099 1.038-.197.198-.123.321-.419.371-.863l.049-.345.247-2.465-7.239-.937-.395 2.441-.049.345c-.049.419 0 .715.148.912.123.148.395.345 1.087.518l.272.025c.074 0 .123.049.173.099s.049.123.049.172l-.049.321c-.025.123-.123.222-.247.222h-.025l-.346-.049-1.927-.395-.914-.123-1.927-.099-.371-.049c-.074 0-.123-.049-.173-.099s-.049-.123-.049-.197l.074-.32a.24.24 0 0 1 .247-.197h.025l.272.025h.123c.618 0 .914-.099 1.038-.197.198-.123.321-.419.371-.838l.049-.419c.445-3.353 1.186-6.114 2.224-8.185C58.75 2.786 60.554.986 62.851 0c.025-.025.074-.025.099-.025.049 0 .099.025.148.049 1.952 1.529 3.236 3.723 3.805 6.484.469 2.293.494 5.153.049 8.505l-.049.419c-.049.419 0 .715.148.887.123.148.395.345 1.062.493l.272.025c.074 0 .124.049.173.099s.049.123.049.173l-.049.32c-.025.123-.123.222-.247.222l-.025.074zm-3.088-6.78c.297-2.465.198-4.61-.321-6.385-.445-1.479-1.112-2.638-2.051-3.378-1.087.468-2.051 1.405-2.841 2.737-.939 1.553-1.606 3.624-1.952 6.089l7.165.937zm-27.695 9.27c-.05 0-.074 0-.124-.025s-.099-.099-.123-.148l-.074-.32c-.025-.123.049-.247.173-.296l.247-.074c.642-.296.889-.518.963-.666.123-.197.123-.518-.025-.937L34.835 6.089c-.124-.394-.296-.641-.519-.764a1.3 1.3 0 0 0-.494-.074 3.9 3.9 0 0 0-.692.074l-.247.074h-.074c-.099 0-.198-.049-.222-.148l-.123-.271a.27.27 0 0 1 0-.197c.025-.074.074-.099.148-.123l6.646-2.145c.865-.271 1.68-.419 2.421-.419a5.82 5.82 0 0 1 1.482.197c1.161.345 1.927 1.06 2.273 2.169a3.34 3.34 0 0 1-.074 2.243 4.03 4.03 0 0 1-.964 1.479c2.322.148 3.805 1.159 4.398 3.032.42 1.307.297 2.564-.346 3.698-.741 1.331-2.174 2.318-4.225 2.983l-4.521 1.43-1.779.74-.346.123c-.025.025-.049.025-.074.025zm2.545-5.029c.519 1.652.939 2.046 1.161 2.145.099.049.247.074.445.074.469 0 1.161-.148 2.1-.444 1.136-.37 1.976-1.011 2.495-1.948s.593-1.898.272-2.934c-.346-1.06-.939-1.8-1.803-2.243a3.82 3.82 0 0 0-1.68-.394c-.519 0-1.062.099-1.631.271l-2.841.887 1.482 4.586zm-1.803-5.621l2.965-.937c1.013-.32 1.705-.838 2.051-1.504.296-.542.321-1.134.123-1.75-.297-.961-.84-1.553-1.631-1.824-.272-.099-.618-.148-.988-.148-.717 0-1.581.173-2.619.493l-1.556.592 1.655 5.079z"/><path d="M23.965 31.359c-.074 0-.123-.049-.173-.099l-.198-.247c-.074-.099-.074-.247.025-.345l.198-.173c.469-.518.568-.838.593-1.011.025-.222-.123-.518-.42-.838l-8.276-8.924c-.272-.296-.544-.444-.791-.444-.173 0-.519.099-1.062.493l-.198.173c-.049.049-.099.074-.173.074s-.124-.025-.173-.074l-.247-.247a.28.28 0 0 1-.074-.197c0-.074.05-.123.099-.173l.272-.222.741-.567a7.69 7.69 0 0 0 .741-.641l1.433-1.405 1.359-1.331c1.26-1.183 2.569-1.824 3.829-1.948.173-.025.321-.025.494-.025 1.087 0 2.001.394 2.693 1.159a4.44 4.44 0 0 1 1.235 2.909c.049.962-.148 1.923-.568 2.884h.618l2.89.099 3.854.099 1.878-.049c2.298-.123 4.2-.493 5.633-1.109.593-.247 1.136-.616 1.631-1.085a7.81 7.81 0 0 0 1.038-1.183c.297-.419.544-.863.741-1.307.049-.099.123-.148.222-.148s.198.074.222.148c.074.222.123.616-.42 1.8a6.44 6.44 0 0 1-1.556 2.194c-1.458 1.331-3.607 2.194-6.399 2.539a33.75 33.75 0 0 1-3.558.172 99.63 99.63 0 0 1-3.607-.074l-2.396-.049c-1.211 0-2.05.074-2.446.197l-1.408 1.282 3.286 3.55c.272.296.544.444.791.444.173 0 .519-.099 1.062-.493l.198-.172c.049-.049.099-.074.173-.074s.123.025.173.074l.247.247a.28.28 0 0 1 .074.197c0 .074-.049.123-.099.173l-.272.222-1.507 1.233-.692.641-1.334 1.405-.272.247c0-.025-.049 0-.124 0zm-3.014-16.321c-1.062 0-2.1.468-3.088 1.356-.741.69-.914.961-.939 1.085-.025.049-.025.271.42.74l4.249 4.586 2.446-2.268c.346-.764.494-1.529.42-2.293s-.37-1.454-.939-2.071a3.38 3.38 0 0 0-2.495-1.134h-.074zm-3.509 29.806c-.049 0-.074 0-.123-.025l-.297-.148c-.123-.049-.173-.197-.099-.32l.099-.247c.198-.666.198-1.011.148-1.159-.074-.222-.297-.419-.716-.592L5.262 37.448c-.247-.099-.445-.148-.618-.148a.89.89 0 0 0-.272.049c-.173.074-.445.271-.791.887l-.099.247c-.049.099-.124.148-.222.148-.025 0-.049 0-.074-.025l-.321-.123c-.074-.025-.124-.074-.148-.148s-.025-.148 0-.197l.173-.321.889-1.726 3.138-7.149c.049-.099.124-.148.222-.148h.049l2.668.641c.074.025.124.074.173.123.025.074.025.148 0 .197l-.148.321c-.049.099-.124.148-.222.148H9.61c-.445-.074-.815-.123-1.112-.123-.272 0-.395.025-.469.074-.124.049-.371.271-.741 1.109L5.583 35.13l4.768 2.096 2.174-4.955c.049-.099.123-.148.222-.148.025 0 .074 0 .099.025l.741.32c.049.025.099.074.124.148.025.049.025.123 0 .197l-2.174 4.955 5.139 2.268c.642.271.889.321.988.321h.049s.173-.074.494-.764l1.087-2.441c.346-.764.469-1.331.395-1.726s-.395-1.011-.939-1.8c-.049-.074-.049-.148-.025-.222l.123-.419c.025-.099.099-.148.198-.173h.049c.074 0 .148.025.198.099.494.616.914 1.109 1.309 1.43l1.087.789c.099.074.123.197.074.296l-1.754 3.526-1.581 3.55-.618 1.824-.148.345c-.025.074-.074.123-.148.123-.025.049-.049.049-.074.049zM.766 65.701c-.074 0-.124-.025-.173-.074s-.074-.123-.074-.172l.025-.345.049-1.948-.025-.937-.198-1.923-.025-.37c0-.074.025-.123.074-.173s.099-.074.173-.074l.346.025c.124 0 .222.099.247.247v.271c.099.69.272.986.371 1.109.148.148.42.247.815.247h.099l3.829-.123-.272-8.703-3.829.123c-.42.025-.716.123-.865.296-.124.123-.272.444-.321 1.134v.271c0 .074-.025.123-.074.173s-.099.074-.173.074h-.37c-.074 0-.124-.025-.173-.074s-.074-.123-.074-.173l.025-.345.049-1.948-.025-.937L0 49.43v-.345c0-.074.025-.123.074-.173s.099-.074.173-.074l.346.025c.124 0 .222.099.247.246v.271c.099.69.272.986.371 1.109.148.148.42.246.791.246H2.1l12.18-.419c.42-.025.692-.123.865-.296.124-.148.272-.444.321-1.134v-.271c0-.074.025-.123.074-.172s.099-.074.173-.074l.395-.025c.074 0 .123.025.173.074a.28.28 0 0 1 .074.197l-.049.345-.049 1.923.025.937.198 1.923.025.37c0 .074-.025.123-.074.173s-.099.074-.173.074l-.346-.025c-.123 0-.222-.099-.247-.247v-.271c-.099-.69-.272-.986-.371-1.109-.148-.148-.42-.246-.791-.246h-.099l-5.509.197.296 8.653 5.46-.173c.42-.025.692-.123.865-.296.124-.148.272-.444.321-1.134v-.271c0-.148.099-.247.247-.247l.395-.025c.074 0 .124.025.173.074a.28.28 0 0 1 .074.197l-.049.345-.049 1.923.025.937.198 1.923.025.37c0 .074-.025.123-.074.173s-.099.074-.173.074l-.346-.025c-.123 0-.222-.099-.247-.246v-.271c-.099-.69-.272-.986-.37-1.109-.148-.148-.42-.246-.791-.246h-.099l-12.18.419c-.42.025-.692.123-.865.296-.124.123-.272.444-.321 1.134v.271c0 .148-.099.247-.247.247-.025.025-.395.049-.395.049zm6.843-4.339h.272l-.296-8.653h-.272l.296 8.653zM51.487 80c-.939 0-1.803-.049-2.742-.197-2.619-.37-4.571-1.134-5.485-1.504-1.655-.641-3.508-1.381-5.509-3.008-2.149-1.726-3.508-3.304-4.867-5.621-.889-1.479-1.68-3.377-2.372-5.596-1.062-3.402-.766-6.163-.272-11.168a58.49 58.49 0 0 1 1.482-8.382c.025-.099.049-.271.099-.468.148-.838.42-2.367 1.26-5.054a12.43 12.43 0 0 1 1.779-3.723l.124-.173c.939-1.455 2.051-2.293 3.039-3.032 1.631-1.233 3.014-1.849 4.496-2.49.791-.345 2.224-.986 4.225-1.479.247-.049.296-.074.889-.197.469-.099 1.285-.246 2.816-.542 2.1-.419 3.138-.468 3.162-.468h.025a26.68 26.68 0 0 1 3.311.222c1.606.222 2.792.493 3.953.74 2.248.493 3.36.74 4.719 1.233 1.112.419 2.199.912 3.237 1.504.716.395 1.779.986 3.014 1.997 1.136.937 1.853 1.75 2.495 2.49a17.53 17.53 0 0 1 1.754 2.243c.741 1.134 1.186 2.071 1.507 2.736a24.64 24.64 0 0 1 1.235 3.23 24.43 24.43 0 0 1 .741 3.23c.272 1.701.272 2.884.247 4.832v.37l.025 5.029a15.76 15.76 0 0 1-.025 1.849c-.148 2.293-.247 4.117-.988 6.459-.247.74-.642 1.997-1.507 3.501a16.66 16.66 0 0 1-3.261 4.019c-1.26 1.109-2.298 1.701-3.755 2.49-1.803 1.011-3.187 1.553-4.941 2.219-2.001.789-3.311 1.282-5.213 1.726-2.149.518-3.854.641-5.213.74a25.14 25.14 0 0 1-3.483.246zM31.006 53.029c-.519 5.079-.791 7.618.222 10.872.667 2.17 1.458 3.994 2.298 5.424 1.334 2.219 2.643 3.747 4.694 5.424 1.902 1.528 3.706 2.243 5.312 2.884.914.345 2.792 1.109 5.312 1.455.889.123 1.729.172 2.643.172 1.087 0 2.174-.074 3.434-.172 1.334-.099 3.014-.247 5.114-.715 1.853-.444 3.138-.937 5.114-1.701 1.729-.666 3.113-1.208 4.867-2.194 1.408-.789 2.421-1.356 3.607-2.416 1.21-1.085 2.298-2.391 3.113-3.821.84-1.455 1.211-2.638 1.433-3.353.716-2.244.815-4.043.963-6.287a14.83 14.83 0 0 0 .025-1.8c-.025-.764-.049-2.022-.025-5.054v-.37c0-1.923.025-3.082-.247-4.733-.173-1.06-.42-2.096-.716-3.131-.321-1.035-.741-2.12-1.211-3.131-.321-.666-.741-1.578-1.458-2.638a20.56 20.56 0 0 0-1.68-2.169c-.618-.715-1.334-1.504-2.421-2.416a17.9 17.9 0 0 0-2.891-1.923c-1.013-.567-2.051-1.035-3.138-1.455-1.309-.493-2.421-.74-4.62-1.208-1.211-.271-2.322-.518-3.903-.74-1.433-.197-2.915-.197-3.212-.197-.049 0-1.062.049-3.063.444l-2.816.542c-.568.123-.642.123-.865.173-1.952.493-3.36 1.109-4.126 1.455-1.433.641-2.792 1.233-4.348 2.416-.964.74-1.976 1.504-2.866 2.86l-.123.173a12.03 12.03 0 0 0-1.68 3.525c-.815 2.638-1.087 4.166-1.235 4.98-.049.222-.074.394-.099.518-.642 2.712-1.137 5.596-1.408 8.308 0-.025 0-.025 0 0zm39.553 6.287c-.445-.173-.889-.296-1.359-.37l-4.126-.641c-2.94-.247-9.141.937-9.635 1.233-.099.074-.889.321-1.235 0-.247-.247-.519-.592.148-1.257.642-.641.889-.715 2.816-3.673.988-1.479 1.433-1.824 2.224-2.219 1.458-.715 2.965-1.233 4.447-1.726 1.136-.37 3.706-2.958 3.706-2.958 1.482-1.233 3.212-5.177 3.212-5.177.494-1.233-.494-1.233-1.976-.986-.543.099-1.235.246-1.977.74l-5.188 3.698c-.025.025-1.482 1.233-2.965 3.698-.593.986-1.408 2.687-1.878 3.673a7.75 7.75 0 0 1-.889 1.43l-3.138 3.969c-.519.764-.988 1.011-1.013 1.011-.494.247-.741 0-.741-.986 0-1.479.371-3.575 2.224-5.424 1.803-1.8 1.902-5.3 1.902-5.424.025-.148-.371-3.23 0-4.66.395-1.553-.469-6.04-1.161-6.632 0 0-.642-.518-.914-.518-.222 0-.445.099-.568.271-1.087 1.381-3.212 5.646-3.459 7.864a33.39 33.39 0 0 0-.247 4.438c0 1.726.124 6.04.988 6.903.815.814.296 4.783.247 5.153 0 .025-.494.986-.494 1.011-.247.493-.791 1.035-1.235 1.726-.494.74-.939 1.726-1.976 1.726-.247 0-.346-.641-.247-.74l.494-.986c.099-.222.494-1.233.247-2.712-.099-.592-.445-1.972-3.212-1.972-1.977 0-1.532 3.205-1.482 3.451.247.986.568 1.676 1.038 1.923.692.296 1.038.468 1.309 1.159.321.814.123 2.096-.618 3.328-.544.888-2.298 3.254-2.693 3.649-.025.025-.272.296-.272.592 0 .197.222.32.395.222.124-.074.222-.123.247-.172l.963-.962 2.841-3.328 5.435-4.931s.865-.616 1.482 0c.593.592 2.396.74 2.471.74 2.471.247 3.953.493 8.943-.271.692.025 7.856-3.18 7.856-3.92.025-.468-.42-.74-.939-.962zm-8.672-12.105c.988-1.011 1.976-1.726 1.976-1.726l2.471-1.972c.124-.099.346-.321.741-.493.272-.123.519-.173.988-.247.741-.123 1.087-.173 1.235 0 .049.074.074.197 0 .493-.173.641-.568 1.011-.988 1.479-.766.863-.519.789-.988 1.233-.791.715-1.186.641-1.482 1.233-.074.148-.198.444-.494.74s-.445.247-.494.247c-.148-.025-.222-.197-.247-.247-.173-.37.124-.592 0-.986-.074-.222-.272-.493-.494-.493s-.296.247-.741.74c-.371.419-.618.69-.988.74-.296.049-.667-.049-.741-.246-.049-.173.148-.395.247-.493zM45.582 62.25c-.074.197-.198.222-.494.493-.346.321-.346.493-.494.493-.222 0-.445-.395-.494-.74-.049-.37.099-.468 0-.74-.049-.099-.198-.247-.494-.493-.321-.271-.42-.321-.494-.493-.025-.049-.124-.296 0-.493.099-.173.296-.197.494-.247.148-.025.42-.074.741 0 .272.049.692.123.988.493.049.049.198.222.247.493.049.222 0 .296 0 .74 0 .37.049.37 0 .493zm5.188-8.136c-.222 0-.42-.74-.494-1.233-.099-.641-.025-1.159 0-1.233.272-1.701-.222-2.539 0-5.424.099-1.233.173-.962.247-1.972.025-.542.025-.863.247-1.233.173-.271.321-.345.494-.74.074-.148.074-.173.247-.74l.247-.74c.222-.542.296-.518.494-.986.297-.715.198-1.06.494-1.233.148-.074.371-.099.494 0 .173.148.049.518 0 .74-.173.74.123.912.247 2.219.123 1.331-.173 1.257 0 2.219.123.641.247.641.494 1.726.173.764.222 1.282.247 1.479.049.616.025.986 0 1.479-.049.789-.148.912-.247.986-.272.173-.716 0-.988-.247-.148-.148-.222-.296-.494-1.479-.148-.641-.198-.962-.494-1.233-.099-.099-.321-.32-.494-.246-.099.049-.272.222 0 2.465.198 1.553.296 1.627.247 2.219-.025.32-.173.863-.494 1.972-.297 1.035-.371 1.233-.494 1.233zm17.912 6.78c-.049.32-.395.542-.741.74-.519.296-.84.321-1.482.493-.716.197-.618.247-1.977.74L63 63.36c-1.062.32-1.655.247-5.682.247 0 0-.642 0-2.965-.247-.791-.074-1.359-.148-1.482-.493-.124-.321.272-.764.494-.986.692-.74 1.507-1.011 2.224-1.233l3.459-.986c.42-.074 1.433-.123 3.459-.247 0 0 .815-.049 3.459 0 .543 0 1.285.025 1.976.493.198.123.791.518.741.986z"/></g><defs><clipPath id="A"><path fill="#fff" d="M0 0h111.2v80H0z"/></clipPath></defs></svg>