<svg xmlns="http://www.w3.org/2000/svg" width="139" height="100" fill="#fff" viewBox="0 0 139 100"><path d="M133.874 82.65c-.093 0-.155-.031-.217-.092s-.092-.154-.092-.247l.031-.246c.03-.123.092-.216.216-.246 1.235-.308 2.131-.925 2.687-1.818.401-.647.679-1.51.802-2.589.124-.924-.061-1.695-.525-2.342s-1.111-1.017-1.976-1.109c-.124 0-.247-.031-.34-.031-.494 0-1.019.154-1.482.431-.618.37-1.513 1.325-2.656 2.835-1.359 1.849-2.501 3.112-3.366 3.821-1.174.955-2.409 1.418-3.706 1.418-.216 0-.432 0-.679-.031-1.483-.185-2.718-1.017-3.675-2.527-.958-1.479-1.297-3.236-1.05-5.208.123-1.048.432-2.065.864-3.051l.865-1.633c.062-.093.155-.154.278-.154l4.077-.123a.28.28 0 0 1 .216.093c.061.062.092.154.092.246l-.061.431c-.031.154-.124.247-.278.277-1.483.123-2.594.524-3.336 1.171-.71.647-1.173 1.633-1.328 2.928-.154 1.233.031 2.28.556 3.143s1.267 1.325 2.286 1.448a3.18 3.18 0 0 0 .525.031c.864 0 1.698-.277 2.47-.832.803-.586 1.853-1.757 3.15-3.513.957-1.263 1.853-2.219 2.687-2.866.957-.709 1.915-1.048 2.872-1.048.154 0 .309 0 .494.031 1.575.185 2.779.894 3.551 2.065s1.05 2.65.834 4.376c-.092.801-.37 1.664-.772 2.527-.37.801-.617 1.479-.679 2.065-.031.154-.155.277-.309.277l-3.026.092zm4.416-22.373c-.124 0-.247-.092-.309-.216l-.093-.308c-.339-.801-.617-1.109-.803-1.233-.123-.093-.277-.123-.494-.123a2 2 0 0 0-.679.123l-.525.154c-3.057.894-5.929 1.325-8.524 1.325a23.25 23.25 0 0 1-2.099-.093c-3.552-.339-6.517-1.633-8.864-3.821-.092-.093-.123-.185-.092-.308.803-3.051 2.656-5.701 5.466-7.889 2.501-1.941 5.744-3.482 9.666-4.623l.525-.154c.494-.154.803-.339.957-.616.093-.185.186-.616.031-1.479l-.093-.308c-.061-.154.062-.339.217-.37l.401-.123h.093c.123 0 .247.092.309.216l.123.431.494 2.404.309 1.109.834 2.25.123.431c.031.092 0 .185-.03.246s-.124.123-.217.154l-.401.093h-.062c-.123 0-.247-.093-.309-.216l-.092-.308c-.34-.801-.618-1.109-.803-1.233-.124-.092-.278-.123-.494-.123a1.99 1.99 0 0 0-.68.123l-.432.123c-4.509 1.294-8.091 2.897-10.624 4.746-2.13 1.541-3.427 3.174-3.922 4.9 1.297 1.202 3.305 1.88 5.899 2.065.463.031.957.062 1.482.062 2.841 0 6.238-.555 10.068-1.664l.432-.123c.494-.154.803-.339.957-.616.093-.185.186-.616.031-1.479l-.092-.308c-.031-.093 0-.154.031-.247a.31.31 0 0 1 .185-.154l.401-.123h.093c.124 0 .247.092.309.216l.123.431.494 2.404.309 1.109.834 2.25.124.431c.03.092 0 .185-.031.246s-.124.123-.216.154l-.402.092c.093-.031.062-.031.062-.031zm-27.331-17.411h-.062c-.092-.031-.154-.062-.216-.154l-.216-.401-1.328-2.034-.71-.924-1.575-1.849-.278-.37c-.062-.062-.062-.154-.062-.246s.062-.154.123-.216l.34-.216c.062-.031.124-.062.155-.062.092 0 .185.031.247.123l.185.247c.587.647.988.832 1.204.863h.124c.247 0 .587-.154.957-.431l12.168-9.122c.401-.308.648-.616.679-.924.031-.216-.031-.647-.494-1.387l-.185-.246c-.062-.062-.062-.154-.062-.216s.062-.154.124-.216l.339-.277c.062-.031.124-.062.186-.062h.061c.093 0 .155.062.216.123l.248.37 1.358 2.003.711.924 1.544 1.849.278.37c.061.062.061.154.061.246s-.061.154-.123.216l-.34.216c-.062.031-.123.062-.154.062a.28.28 0 0 1-.247-.123l-.186-.277c-.617-.647-.988-.832-1.204-.894-.031 0-.093-.031-.154-.031-.247 0-.587.154-.958.401l-12.167 9.122c-.402.308-.618.616-.649.924-.031.216.062.647.494 1.418l.186.277c.092.123.061.339-.062.431l-.371.277c-.061.185-.123.216-.185.216zm17.603-15.039c-.062 0-.093 0-.155-.031-.525-.308-1.05-.462-1.606-.462-.277 0-.555.031-.833.123h-.062a.28.28 0 0 1-.247-.123l-.155-.185c-.061-.092-.092-.247-.03-.339.463-.77.555-1.572.339-2.434-.031-.123 0-.247.124-.308l.185-.154c.062-.031.124-.062.185-.062a.28.28 0 0 1 .155.031c.525.308 1.05.462 1.606.462a2.61 2.61 0 0 0 .833-.123h.062a.28.28 0 0 1 .247.123l.155.185c.061.092.092.246.031.339-.464.77-.556 1.572-.34 2.435.031.123 0 .247-.124.308l-.185.154c-.062.062-.123.062-.185.062z"/><path d="M113.43 43.267c-.371 0-.834-.062-1.421-.154-1.142-.216-2.223-.616-3.119-1.202-2.069-1.356-3.767-3.698-5.034-6.965-.71-1.849-1.482-4.777-2.285-8.66-.648-3.143-1.204-5.085-1.637-5.794l-2.007-1.294-3.304 5.054c-.278.431-.371.801-.309 1.109.062.216.247.585.927 1.14l.278.185c.154.092.185.277.093.431l-.247.37c-.062.062-.123.123-.216.123h-.062c-.062 0-.124-.031-.185-.062l-.34-.277-1.946-1.448-.988-.647-2.1-1.171-.371-.247c-.062-.062-.123-.123-.123-.216s0-.185.062-.247l.247-.308c.062-.093.154-.123.247-.123.062 0 .124.031.154.062l.278.185c.556.277.988.431 1.297.431h.124c.278-.031.587-.277.895-.74l8.338-12.789c.278-.431.371-.801.309-1.109-.061-.216-.247-.586-.926-1.14l-.278-.185c-.062-.031-.123-.123-.123-.185-.031-.092 0-.154.031-.247l.247-.37c.062-.062.124-.123.216-.123h.062c.062 0 .124.031.186.062l.339.277.927.74c.278.216.617.431 1.019.709l2.131 1.294 2.038 1.233c1.822 1.171 2.995 2.527 3.551 4.037.556 1.541.433 2.958-.401 4.191-.772 1.171-1.822 1.972-3.15 2.373-.679.216-1.421.308-2.162.308-.494 0-.988-.062-1.513-.154.247.801.556 2.188.957 4.253l1.668 6.965c.834 2.743 1.884 4.931 3.057 6.471.494.616 1.112 1.171 1.822 1.664.556.37 1.143.647 1.761.894.617.216 1.204.401 1.791.493.123.031.216.123.247.246s-.031.247-.124.308c-.216.185-.494.246-.926.246zm-11.241-22.958a6.75 6.75 0 0 0 1.111.093c.618 0 1.236-.093 1.792-.308.895-.308 1.667-.894 2.223-1.757.68-1.048.896-2.157.618-3.359-.309-1.325-1.174-2.465-2.625-3.39-1.05-.678-1.452-.801-1.606-.801v-.308.308c-.062 0-.34.062-.772.74l-4.262 6.533 3.521 2.25zm-16.831 1.848l-.432-.062-2.409-.493-1.143-.154-2.409-.123-.463-.062c-.093 0-.154-.062-.216-.123s-.062-.154-.062-.247l.093-.401a.3.3 0 0 1 .309-.247h.031l.34.031h.154c.772 0 1.143-.123 1.297-.247.247-.154.401-.524.463-1.079l.062-.431.309-3.082-9.048-1.171-.494 3.051-.062.431c-.062.524 0 .894.185 1.14.154.185.494.431 1.359.647l.34.031c.093 0 .154.062.216.123s.062.154.062.216l-.062.401c-.031.154-.154.277-.309.277h-.031l-.432-.062-2.409-.493-1.143-.154-2.409-.123-.463-.062c-.093 0-.154-.062-.216-.123s-.062-.154-.062-.247l.093-.401a.3.3 0 0 1 .309-.246h.031l.34.031h.154c.772 0 1.143-.123 1.297-.247.247-.154.402-.524.463-1.048l.062-.524c.556-4.191 1.482-7.643 2.779-10.231 1.606-3.174 3.86-5.424 6.732-6.656.031-.031.093-.031.123-.031.062 0 .124.031.185.062 2.44 1.911 4.046 4.653 4.756 8.105.587 2.866.618 6.441.062 10.632l-.062.524c-.062.524 0 .894.185 1.109.154.185.494.431 1.328.616l.34.031c.093 0 .155.062.216.123s.062.154.062.216l-.062.401c-.031.154-.154.277-.309.277l-.031.093zm-3.86-8.475c.371-3.082.247-5.763-.401-7.982-.556-1.849-1.39-3.297-2.563-4.222-1.359.586-2.563 1.757-3.551 3.421-1.174 1.941-2.007 4.53-2.44 7.612l8.956 1.171zM46.879 25.27c-.062 0-.093 0-.154-.031s-.124-.123-.155-.185l-.093-.401c-.031-.154.062-.308.216-.37l.309-.093c.803-.37 1.112-.647 1.204-.832.154-.247.154-.647-.031-1.171L43.544 7.612c-.154-.493-.371-.801-.648-.955-.154-.062-.34-.092-.618-.092-.247 0-.525.031-.865.092l-.309.092h-.093c-.124 0-.247-.062-.278-.185l-.154-.339a.34.34 0 0 1 0-.247c.031-.092.093-.123.185-.154l8.307-2.681c1.081-.339 2.1-.524 3.026-.524.649 0 1.266.092 1.853.247 1.451.431 2.409 1.325 2.841 2.712a4.17 4.17 0 0 1-.093 2.804c-.247.678-.649 1.294-1.204 1.849 2.903.185 4.756 1.448 5.497 3.79.525 1.633.37 3.205-.432 4.622-.926 1.664-2.718 2.897-5.281 3.729l-5.651 1.787-2.224.925-.432.154c-.031.031-.062.031-.093.031zm3.181-6.287c.648 2.065 1.173 2.558 1.451 2.681.123.062.309.092.556.092.587 0 1.452-.185 2.625-.555 1.421-.462 2.471-1.263 3.119-2.434s.741-2.373.34-3.667c-.432-1.325-1.173-2.25-2.254-2.804-.648-.308-1.328-.493-2.1-.493-.649 0-1.328.123-2.038.339l-3.551 1.109 1.853 5.732zm-2.254-7.026l3.706-1.171c1.266-.401 2.131-1.048 2.563-1.88.371-.678.401-1.418.154-2.188-.371-1.202-1.05-1.941-2.038-2.28-.34-.123-.772-.185-1.235-.185-.896 0-1.976.216-3.273.616l-1.946.74 2.069 6.348z"/><path d="M29.956 39.199c-.093 0-.154-.062-.216-.123l-.247-.308a.33.33 0 0 1 .031-.431l.247-.216c.587-.647.71-1.048.741-1.264.031-.277-.154-.647-.525-1.048L19.641 24.653c-.34-.37-.679-.555-.988-.555-.216 0-.648.123-1.328.616l-.247.216a.28.28 0 0 1-.216.093.28.28 0 0 1-.216-.093l-.309-.308a.35.35 0 0 1-.093-.247c0-.092.062-.154.124-.216l.34-.277.926-.709a9.42 9.42 0 0 0 .927-.801l1.791-1.757 1.698-1.664c1.575-1.479 3.212-2.28 4.787-2.434.216-.031.401-.031.618-.031 1.359 0 2.502.493 3.366 1.448a5.55 5.55 0 0 1 1.544 3.636c.062 1.202-.185 2.404-.71 3.606h.772l3.613.123 4.818.123 2.347-.062c2.872-.154 5.25-.616 7.041-1.387.741-.308 1.42-.77 2.038-1.356a9.69 9.69 0 0 0 1.297-1.479 9.6 9.6 0 0 0 .926-1.633c.062-.123.154-.185.278-.185s.247.093.278.185c.093.277.154.77-.525 2.25a8.05 8.05 0 0 1-1.946 2.743c-1.822 1.664-4.509 2.743-7.998 3.174-1.143.123-2.656.216-4.447.216a125.04 125.04 0 0 1-4.509-.092l-2.996-.062c-1.513 0-2.563.092-3.057.247l-1.76 1.602 4.107 4.438c.34.37.679.555.988.555.216 0 .649-.123 1.328-.616l.247-.216a.28.28 0 0 1 .216-.093.28.28 0 0 1 .216.093l.309.308a.35.35 0 0 1 .093.247c0 .092-.062.154-.123.216l-.34.277-1.884 1.541-.865.801-1.668 1.757-.34.308c0-.031-.062 0-.154 0zm-3.768-20.401c-1.328 0-2.625.585-3.86 1.695-.927.863-1.143 1.202-1.174 1.356-.031.062-.031.339.525.924l5.312 5.732 3.057-2.835c.432-.955.618-1.911.525-2.866a4.33 4.33 0 0 0-1.174-2.589c-.865-.924-1.884-1.387-3.119-1.418h-.093zm-4.385 37.258c-.062 0-.093 0-.154-.031l-.371-.185c-.154-.062-.216-.246-.123-.401l.123-.308c.247-.832.247-1.264.185-1.448-.093-.277-.371-.524-.896-.74l-13.99-6.132c-.309-.123-.556-.185-.772-.185-.124 0-.247.031-.34.062-.216.093-.556.339-.988 1.109l-.124.308c-.062.123-.154.185-.278.185-.031 0-.062 0-.093-.031l-.401-.154c-.093-.031-.154-.092-.185-.185s-.031-.185 0-.247l.216-.401 1.112-2.157 3.922-8.937c.062-.123.154-.185.278-.185h.062l3.335.801c.093.031.155.092.216.154.031.092.031.185 0 .247l-.185.401c-.062.123-.154.185-.278.185h-.062c-.556-.093-1.019-.154-1.39-.154-.34 0-.494.031-.587.093-.154.062-.463.339-.926 1.387l-2.131 4.807 5.96 2.619 2.718-6.194c.062-.123.154-.185.278-.185.031 0 .093 0 .124.031l.926.401a.31.31 0 0 1 .154.185c.031.062.031.154 0 .246l-2.718 6.194 6.424 2.835c.803.339 1.112.401 1.235.401h.062s.216-.092.618-.955l1.359-3.051c.432-.955.587-1.664.494-2.157s-.494-1.263-1.174-2.25c-.062-.093-.062-.185-.031-.277l.154-.524c.031-.123.123-.185.247-.216h.062c.093 0 .185.031.247.123.618.77 1.143 1.387 1.637 1.787l1.359.986c.124.093.154.247.093.37l-2.193 4.407-1.976 4.438-.772 2.28-.185.431c-.031.093-.093.154-.185.154-.031.062-.062.062-.093.062zM.957 82.126a.28.28 0 0 1-.216-.092c-.062-.062-.093-.154-.093-.216l.031-.431.062-2.434-.031-1.171-.247-2.404-.031-.462a.28.28 0 0 1 .093-.216.28.28 0 0 1 .216-.092l.432.031c.154 0 .278.123.309.308v.339c.124.863.34 1.233.463 1.387.185.185.525.308 1.019.308h.124l4.787-.154-.34-10.878-4.787.154c-.525.031-.896.154-1.081.37-.154.154-.34.555-.401 1.417v.339c0 .093-.031.154-.093.216a.28.28 0 0 1-.216.092H.494a.28.28 0 0 1-.216-.092c-.062-.062-.093-.154-.093-.216l.031-.431.062-2.434-.031-1.171L0 61.787v-.431c0-.093.031-.154.093-.216a.28.28 0 0 1 .216-.093l.432.031c.154 0 .278.123.309.308v.339c.124.863.34 1.233.463 1.387.185.185.525.308.988.308h.124l15.225-.524c.525-.031.865-.154 1.081-.37.154-.185.34-.555.401-1.417v-.339c0-.093.031-.154.093-.216a.28.28 0 0 1 .216-.092l.494-.031a.28.28 0 0 1 .216.092.35.35 0 0 1 .093.247l-.062.431-.062 2.404.031 1.171.247 2.404.031.462a.28.28 0 0 1-.093.216.28.28 0 0 1-.216.093l-.432-.031c-.154 0-.278-.123-.309-.308v-.339c-.123-.863-.34-1.233-.463-1.387-.185-.185-.525-.308-.988-.308h-.124l-6.887.246.371 10.817 6.825-.216c.525-.031.865-.154 1.081-.37.154-.185.34-.555.402-1.418v-.339a.29.29 0 0 1 .309-.308l.494-.031a.28.28 0 0 1 .216.093.35.35 0 0 1 .093.246l-.062.431-.062 2.404.031 1.171.247 2.404.031.462a.28.28 0 0 1-.093.216.28.28 0 0 1-.216.093l-.432-.031c-.154 0-.278-.123-.309-.308v-.339c-.123-.863-.34-1.233-.463-1.387-.185-.185-.525-.308-.988-.308h-.123l-15.225.524c-.525.031-.865.154-1.081.37-.154.154-.34.555-.401 1.418v.339a.29.29 0 0 1-.309.308c-.031.031-.494.062-.494.062zm8.554-5.424h.34L9.48 65.885h-.34l.371 10.817zM64.358 100c-1.173 0-2.254-.062-3.428-.246-3.273-.462-5.713-1.418-6.856-1.88-2.069-.801-4.385-1.726-6.887-3.76-2.687-2.157-4.385-4.129-6.084-7.026-1.112-1.849-2.1-4.222-2.965-6.995-1.328-4.253-.957-7.704-.34-13.96.34-3.421.988-7.057 1.853-10.478.031-.123.062-.339.124-.586.185-1.048.525-2.958 1.575-6.317.741-2.404 1.482-3.544 2.224-4.653l.154-.216c1.173-1.818 2.563-2.866 3.798-3.79 2.038-1.541 3.768-2.311 5.621-3.113.988-.431 2.779-1.233 5.281-1.849.309-.062.371-.093 1.112-.246.587-.123 1.606-.308 3.52-.678 2.625-.524 3.922-.585 3.953-.585h.031c.525 0 2.378.031 4.138.277 2.007.277 3.49.616 4.941.925 2.81.616 4.2.925 5.898 1.541 1.39.524 2.749 1.14 4.046 1.88.896.493 2.224 1.233 3.768 2.496 1.421 1.171 2.316 2.188 3.119 3.112a21.88 21.88 0 0 1 2.193 2.804c.926 1.418 1.482 2.589 1.884 3.421.618 1.325 1.143 2.712 1.544 4.037s.71 2.681.926 4.037c.34 2.126.34 3.606.309 6.04v.462l.031 6.287c.031.894.031 1.233-.031 2.311-.185 2.866-.309 5.146-1.235 8.074-.309.924-.803 2.496-1.884 4.376a20.78 20.78 0 0 1-4.076 5.023c-1.575 1.387-2.872 2.126-4.694 3.112-2.254 1.264-3.984 1.941-6.176 2.774-2.501.986-4.138 1.602-6.516 2.157-2.687.647-4.818.801-6.516.924-1.575.216-2.965.308-4.354.308zM38.757 66.287c-.649 6.348-.988 9.522.278 13.59.834 2.712 1.822 4.992 2.872 6.78 1.668 2.773 3.304 4.684 5.868 6.78 2.378 1.911 4.632 2.804 6.64 3.606 1.143.431 3.49 1.387 6.64 1.818a23.49 23.49 0 0 0 3.304.216c1.359 0 2.718-.093 4.293-.216 1.668-.123 3.768-.308 6.393-.894 2.316-.555 3.922-1.171 6.392-2.126 2.162-.832 3.891-1.51 6.084-2.743 1.76-.986 3.026-1.695 4.509-3.02 1.513-1.356 2.872-2.989 3.891-4.776 1.05-1.818 1.513-3.297 1.791-4.191.895-2.804 1.019-5.054 1.204-7.858a18.47 18.47 0 0 0 .031-2.25c-.031-.955-.062-2.527-.031-6.317v-.462c0-2.404.031-3.852-.309-5.917a34.17 34.17 0 0 0-.895-3.914 31.94 31.94 0 0 0-1.513-3.914c-.401-.832-.926-1.972-1.822-3.297-.803-1.202-1.513-2.034-2.1-2.712-.772-.894-1.668-1.88-3.026-3.02-1.482-1.202-2.748-1.941-3.613-2.404-1.266-.709-2.563-1.294-3.922-1.818-1.637-.616-3.027-.925-5.775-1.51-1.513-.339-2.903-.647-4.879-.925-1.791-.247-3.644-.247-4.015-.247-.062 0-1.328.062-3.829.555l-3.521.678c-.71.154-.803.154-1.081.216a30.11 30.11 0 0 0-5.157 1.818c-1.791.801-3.49 1.541-5.435 3.02-1.204.925-2.471 1.88-3.582 3.575l-.154.216c-.71 1.079-1.39 2.126-2.1 4.407-1.019 3.297-1.359 5.208-1.544 6.225-.062.277-.093.493-.124.647-.803 3.39-1.42 6.995-1.76 10.385 0-.031 0-.031 0 0zm49.442 7.858a8.12 8.12 0 0 0-1.698-.462l-5.157-.801c-3.675-.308-11.426 1.171-12.044 1.541-.124.092-1.112.401-1.544 0-.309-.308-.649-.74.185-1.572.803-.801 1.112-.894 3.521-4.592 1.235-1.849 1.791-2.28 2.779-2.773 1.822-.894 3.706-1.541 5.559-2.157 1.421-.462 4.632-3.698 4.632-3.698 1.853-1.541 4.015-6.471 4.015-6.471.618-1.541-.618-1.541-2.471-1.233-.679.123-1.544.308-2.471.924-1.977 1.325-6.454 4.592-6.485 4.623s-1.853 1.541-3.706 4.623c-.741 1.233-1.76 3.359-2.347 4.592a9.59 9.59 0 0 1-1.112 1.787l-3.922 4.961c-.648.955-1.235 1.263-1.266 1.263-.618.308-.927 0-.927-1.233 0-1.849.463-4.468 2.779-6.78 2.254-2.25 2.378-6.626 2.378-6.78.031-.185-.463-4.037 0-5.824.494-1.941-.587-7.55-1.452-8.29 0 0-.803-.647-1.143-.647-.278 0-.556.123-.71.339-1.359 1.726-4.015 7.057-4.324 9.831a41.76 41.76 0 0 0-.309 5.547c0 2.157.154 7.55 1.235 8.629 1.019 1.017.371 5.978.309 6.441 0 .031-.618 1.233-.618 1.264-.309.616-.988 1.294-1.544 2.157-.618.924-1.173 2.157-2.471 2.157-.309 0-.432-.801-.309-.925l.618-1.233c.124-.277.618-1.541.309-3.39-.123-.74-.556-2.465-4.015-2.465-2.471 0-1.915 4.006-1.853 4.314.309 1.233.71 2.096 1.297 2.404.865.37 1.297.585 1.637 1.448.401 1.017.154 2.619-.772 4.16-.679 1.109-2.872 4.068-3.366 4.561-.031.031-.34.37-.34.74a.33.33 0 0 0 .494.277c.154-.092.278-.154.309-.216l1.204-1.202 3.551-4.16 6.794-6.163s1.081-.77 1.853 0c.741.74 2.996.924 3.088.924 3.088.308 4.941.616 11.179-.339.865.031 9.821-3.975 9.821-4.9.031-.585-.525-.924-1.174-1.202zM77.36 59.014c1.235-1.263 2.471-2.157 2.471-2.157.649-.493 2.131-1.602 3.088-2.465.154-.123.432-.401.927-.616.34-.154.648-.216 1.235-.308.926-.154 1.359-.216 1.544 0 .062.092.093.246 0 .616-.216.801-.71 1.264-1.235 1.849-.957 1.079-.648.986-1.235 1.541-.988.894-1.482.801-1.853 1.541-.093.185-.247.555-.618.924s-.556.308-.618.308c-.185-.031-.278-.246-.309-.308-.216-.462.154-.74 0-1.233-.093-.277-.34-.616-.618-.616s-.371.308-.927.924c-.463.524-.772.863-1.235.924-.371.062-.834-.062-.926-.308-.062-.216.185-.493.309-.616zM56.977 77.812c-.093.246-.247.277-.618.616-.432.401-.432.616-.618.616-.278 0-.556-.493-.618-.925-.062-.462.123-.586 0-.924-.062-.123-.247-.308-.618-.616-.401-.339-.525-.401-.618-.616-.031-.062-.154-.37 0-.616.124-.216.371-.247.618-.308.185-.031.525-.092.926 0 .34.062.865.154 1.235.616a1.21 1.21 0 0 1 .309.616c.062.277 0 .37 0 .925 0 .462.062.462 0 .616zm6.485-10.169c-.278 0-.525-.924-.618-1.541-.123-.801-.031-1.448 0-1.541.34-2.126-.278-3.174 0-6.78.123-1.541.216-1.202.309-2.465.031-.678.031-1.079.309-1.541.216-.339.401-.431.618-.925.093-.185.093-.216.309-.924.154-.493.247-.74.309-.925.278-.678.371-.647.618-1.233.371-.894.247-1.325.618-1.541.185-.092.463-.123.618 0 .216.185.062.647 0 .925-.216.924.154 1.14.309 2.773.154 1.664-.216 1.572 0 2.773.154.801.309.801.618 2.157.216.955.278 1.603.309 1.849.062.77.031 1.233 0 1.849-.062.986-.185 1.14-.309 1.233-.34.216-.896 0-1.235-.308-.185-.185-.278-.37-.618-1.849-.185-.801-.247-1.202-.618-1.541-.124-.123-.401-.401-.618-.308-.123.062-.34.277 0 3.082.247 1.941.371 2.034.309 2.773-.031.401-.216 1.079-.618 2.465-.371 1.294-.463 1.541-.618 1.541zm22.389 8.475c-.062.401-.494.678-.926.925-.649.37-1.05.401-1.853.616-.895.246-.772.308-2.471.925-.957.339-1.698.555-1.853.616-1.328.401-2.069.308-7.103.308 0 0-.803 0-3.706-.308-.988-.092-1.698-.185-1.853-.616-.154-.401.34-.955.618-1.233.865-.925 1.884-1.264 2.779-1.541 2.224-.709 3.335-1.079 4.323-1.233.525-.093 1.791-.154 4.323-.308 0 0 1.019-.062 4.323 0 .679 0 1.606.031 2.471.616.247.154.988.647.926 1.233z"/></svg>