<svg width="31" height="30" viewBox="0 0 31 30" fill="none" xmlns="http://www.w3.org/2000/svg">
<path d="M22.5312 5.33203H8.46875C7.01489 5.33203 5.83203 6.51489 5.83203 7.96875V22.0312C5.83203 23.4851 7.01489 24.668 8.46875 24.668H22.5312C23.9851 24.668 25.168 23.4851 25.168 22.0312V7.96875C25.168 6.51489 23.9851 5.33203 22.5312 5.33203ZM15.5 21.1523C12.108 21.1523 9.34766 18.392 9.34766 15C9.34766 11.608 12.108 8.84766 15.5 8.84766C18.892 8.84766 21.6523 11.608 21.6523 15C21.6523 18.392 18.892 21.1523 15.5 21.1523ZM21.6523 10.6055C20.6833 10.6055 19.8945 9.81674 19.8945 8.84766C19.8945 7.87857 20.6833 7.08984 21.6523 7.08984C22.6214 7.08984 23.4102 7.87857 23.4102 8.84766C23.4102 9.81674 22.6214 10.6055 21.6523 10.6055Z" fill="black"/>
<path d="M15.5 10.6055C13.0771 10.6055 11.1055 12.5771 11.1055 15C11.1055 17.4229 13.0771 19.3945 15.5 19.3945C17.9229 19.3945 19.8945 17.4229 19.8945 15C19.8945 12.5771 17.9229 10.6055 15.5 10.6055Z" fill="black"/>
<path d="M26.0469 0H4.95312C2.53018 0 0.5 2.03018 0.5 4.45312V25.5469C0.5 27.9698 2.53018 30 4.95312 30H26.0469C28.4698 30 30.5 27.9698 30.5 25.5469V4.45312C30.5 2.03018 28.4698 0 26.0469 0ZM26.9258 22.0312C26.9258 24.4542 24.9542 26.4258 22.5312 26.4258H8.46875C6.04581 26.4258 4.07422 24.4542 4.07422 22.0312V7.96875C4.07422 5.54581 6.04581 3.57422 8.46875 3.57422H22.5312C24.9542 3.57422 26.9258 5.54581 26.9258 7.96875V22.0312Z" fill="black"/>
</svg>
