<?xml version="1.0" standalone="no"?>
<!DOCTYPE svg PUBLIC "-//W3C//DTD SVG 20010904//EN"
 "http://www.w3.org/TR/2001/REC-SVG-20010904/DTD/svg10.dtd">
<svg version="1.0" xmlns="http://www.w3.org/2000/svg"
 width="672.000000pt" height="672.000000pt" viewBox="0 0 672.000000 672.000000"
 preserveAspectRatio="xMidYMid meet">
<metadata>
Created by potrace 1.11, written by Peter Selinger 2001-2013
</metadata>
<g transform="translate(0.000000,672.000000) scale(0.100000,-0.100000)"
fill="#000000" stroke="none">
<path d="M2736 6702 c-26 -19 -96 -114 -140 -193 -11 -19 -22 -36 -25 -39 -23
-19 -196 -371 -279 -565 -142 -333 -199 -542 -217 -795 -3 -41 -8 -86 -10
-100 -18 -97 -25 -732 -11 -975 10 -176 23 -334 30 -372 3 -12 7 -48 11 -80 3
-32 8 -65 10 -73 2 -8 7 -31 10 -50 20 -117 49 -196 104 -273 40 -58 70 -164
75 -267 2 -41 5 -79 6 -85 1 -5 2 -12 1 -15 -1 -3 -4 -75 -7 -160 -5 -155 -6
-177 -18 -300 -10 -99 -14 -113 -68 -223 -45 -92 -119 -208 -156 -246 -8 -8
-60 -84 -116 -170 -111 -168 -158 -222 -221 -251 -85 -41 -138 -33 -150 22
-13 57 -8 80 41 173 53 103 73 162 91 270 9 52 8 249 -1 299 -4 21 -9 47 -11
58 -10 49 -60 135 -100 174 -67 63 -207 123 -305 130 -14 1 -25 2 -25 3 0 10
-174 4 -210 -7 -82 -23 -158 -123 -181 -237 -20 -100 -22 -281 -4 -372 13 -65
43 -158 72 -219 33 -72 84 -122 164 -160 41 -19 89 -50 107 -69 36 -37 75
-109 83 -152 3 -14 7 -30 10 -34 6 -11 6 -149 -1 -179 -3 -14 -7 -38 -9 -55
-6 -44 -44 -151 -79 -220 -30 -61 -106 -186 -118 -195 -3 -3 -13 -19 -22 -37
-9 -17 -22 -37 -30 -45 -7 -7 -43 -57 -80 -110 -37 -53 -74 -103 -82 -112 -8
-8 -15 -17 -15 -21 0 -3 -47 -65 -105 -138 -57 -73 -107 -144 -110 -159 -14
-63 28 -95 82 -62 15 10 31 22 34 26 3 4 44 47 91 95 47 49 122 133 168 188
45 55 86 101 91 103 5 2 9 10 9 18 0 8 4 14 9 14 5 0 27 24 49 52 22 29 52 67
67 83 31 36 58 69 105 127 51 63 293 299 432 419 10 9 71 66 136 126 64 61
131 122 147 137 29 27 173 161 280 260 62 58 109 83 169 91 57 8 101 -6 146
-47 65 -58 205 -105 369 -124 31 -3 65 -8 75 -10 11 -2 55 -6 98 -9 43 -4 88
-8 99 -10 129 -25 591 -25 844 0 17 1 62 6 100 9 39 4 77 9 85 11 8 2 38 6 65
10 28 3 64 8 80 10 17 2 46 7 65 9 19 3 55 8 80 12 25 4 54 8 65 9 66 9 235
71 428 159 32 14 59 26 61 26 6 0 244 114 364 174 338 168 542 302 542 355 0
126 -189 212 -585 267 -16 2 -41 6 -55 9 -14 3 -38 8 -55 10 -16 3 -46 7 -65
11 -19 3 -44 7 -55 8 -11 2 -40 7 -65 10 -25 4 -70 11 -101 17 -121 21 -161
23 -344 24 -168 0 -400 -11 -415 -20 -3 -1 -36 -6 -75 -9 -74 -7 -128 -14
-161 -20 -12 -2 -45 -7 -75 -11 -30 -3 -92 -13 -139 -21 -47 -8 -102 -17 -122
-19 -21 -3 -69 -12 -108 -20 -38 -8 -84 -17 -102 -20 -18 -3 -61 -12 -94 -20
-34 -8 -74 -16 -89 -19 -15 -3 -50 -12 -78 -21 -71 -23 -71 -23 -78 -21 -3 0
-13 -5 -22 -13 -18 -15 -121 -22 -152 -11 -34 13 -74 60 -81 95 -9 49 19 97
112 195 75 78 122 130 141 155 57 73 273 390 273 400 0 6 147 221 173 252 53
66 153 155 209 189 94 54 366 175 518 229 36 12 130 46 209 74 140 50 236 96
295 143 166 131 266 221 440 394 165 165 162 161 240 280 36 54 70 105 76 111
6 7 11 16 12 20 0 5 6 17 13 28 56 92 206 387 258 505 44 102 49 166 15 197
-40 36 -61 41 -158 38 -83 -2 -140 -9 -254 -31 -75 -14 -225 -74 -254 -101 -7
-7 -17 -13 -22 -13 -5 0 -15 -6 -22 -12 -7 -7 -42 -33 -78 -57 -66 -46 -321
-229 -396 -285 -23 -17 -52 -38 -64 -46 -12 -8 -28 -20 -34 -25 -6 -6 -40 -31
-76 -57 -36 -26 -69 -51 -75 -55 -5 -5 -44 -33 -85 -63 -41 -30 -76 -58 -78
-62 -2 -5 -8 -8 -12 -8 -18 0 -162 -152 -263 -278 -102 -126 -257 -350 -257
-371 0 -5 -3 -11 -7 -13 -5 -1 -18 -21 -31 -43 -26 -45 -272 -542 -322 -650
-51 -112 -122 -215 -318 -464 -27 -34 -155 -200 -202 -261 -14 -18 -53 -69
-88 -114 -35 -44 -87 -112 -116 -151 -124 -162 -232 -221 -270 -147 -47 91
-29 385 36 589 12 38 23 74 24 81 1 6 27 63 58 125 59 118 136 228 224 322 89
94 137 165 195 285 49 101 106 269 121 354 3 16 10 52 15 80 6 28 13 69 16 91
11 64 11 309 1 440 -16 207 -12 486 9 575 16 71 19 108 18 250 -1 153 -7 252
-20 300 -3 14 -5 29 -4 33 1 5 -5 45 -14 90 -8 45 -16 91 -18 102 -2 11 -7 34
-11 50 -4 17 -17 66 -27 110 -37 150 -79 254 -121 297 -38 40 -126 90 -165 94
-27 4 -46 -1 -67 -14z m93 -431 c21 -12 23 -18 17 -64 -3 -29 -9 -65 -14 -82
-9 -31 -8 -92 1 -135 47 -209 56 -321 42 -475 -4 -44 -8 -84 -8 -90 1 -46 17
-129 42 -207 30 -93 50 -165 57 -203 2 -11 6 -31 9 -45 11 -51 21 -115 31
-190 7 -58 7 -269 -1 -340 -11 -106 -21 -128 -64 -141 -35 -10 -45 -9 -88 12
-26 12 -53 28 -59 34 -18 17 -56 96 -50 102 3 3 1 13 -4 23 -5 9 -11 28 -14
41 -2 13 -12 56 -21 94 -9 39 -18 77 -20 86 -19 92 -79 180 -131 193 -46 12
-53 -12 -49 -169 3 -77 7 -156 9 -175 3 -19 7 -57 10 -85 4 -27 8 -65 11 -83
3 -18 7 -52 10 -75 3 -23 8 -53 11 -67 4 -14 8 -70 10 -125 3 -91 -1 -117 -31
-235 -2 -8 -20 -73 -40 -145 -20 -71 -38 -134 -39 -140 -18 -67 -29 -97 -44
-115 -17 -21 -18 -21 -35 -2 -21 23 -52 108 -66 182 -10 56 -8 265 3 310 7 27
8 208 2 275 -29 314 -22 636 18 870 5 24 14 118 21 200 8 102 27 156 68 201
23 24 76 122 81 148 17 83 66 217 111 306 42 82 57 122 89 241 13 46 22 59 47
72 35 17 44 17 78 -2z m2857 -769 c9 -18 9 -36 -3 -78 -13 -51 -59 -141 -86
-169 -7 -6 -28 -32 -49 -56 -20 -24 -48 -57 -63 -74 -14 -16 -45 -57 -67 -90
-44 -65 -141 -161 -170 -171 -10 -3 -18 -9 -18 -13 0 -4 -11 -13 -25 -19 -14
-7 -31 -16 -38 -22 -7 -5 -25 -21 -42 -34 -16 -13 -39 -41 -50 -63 -55 -109
-125 -183 -173 -183 -34 0 -63 54 -56 105 12 82 7 124 -17 160 -13 19 -32 38
-42 41 -26 8 -67 -4 -67 -20 0 -8 -4 -16 -8 -18 -5 -1 -35 -34 -67 -73 -32
-38 -73 -84 -92 -101 -61 -57 -168 -69 -213 -24 -40 40 9 100 251 315 19 17
86 71 149 120 63 50 122 95 130 102 8 7 33 26 55 43 47 37 112 92 209 176 126
108 188 137 351 158 27 4 51 9 53 10 2 2 33 3 70 2 59 -1 68 -4 78 -24z m-456
-3017 c71 -12 116 -28 174 -58 69 -37 165 -129 167 -160 5 -77 -15 -106 -119
-168 -40 -24 -77 -45 -82 -45 -6 -1 -12 -2 -15 -3 -3 0 -8 -1 -12 -2 -5 -1
-15 -5 -24 -10 -9 -4 -28 -10 -43 -13 -76 -14 -357 -115 -381 -137 -5 -5 -17
-9 -27 -9 -10 0 -26 -4 -36 -10 -19 -11 -281 -99 -315 -106 -58 -11 -86 -16
-137 -24 -58 -8 -951 -5 -1010 3 -19 3 -66 8 -105 12 -38 3 -83 7 -100 9 -16
2 -61 7 -100 10 -141 14 -161 17 -212 33 -29 8 -60 24 -69 34 -38 42 -12 116
72 205 67 70 186 154 218 154 8 0 19 7 26 15 7 9 15 14 17 11 3 -2 19 2 36 9
30 12 400 135 422 139 6 2 42 12 80 23 69 21 130 37 150 38 6 1 24 4 40 8 17
4 48 9 70 12 36 4 77 7 275 20 30 2 114 7 185 11 72 3 131 7 133 9 6 5 690 -4
722 -10z m-3911 -121 c58 -19 124 -75 143 -122 6 -15 11 -80 13 -146 l2 -118
-89 -90 c-84 -85 -91 -90 -113 -78 -40 21 -66 98 -63 186 l3 76 -75 69 c-41
38 -77 69 -81 69 -8 0 -29 49 -33 76 -7 45 32 83 99 97 40 9 141 -1 194 -19z"/>
</g>
</svg>
