<svg width="55" height="53" viewBox="0 0 55 53" fill="none" xmlns="http://www.w3.org/2000/svg">
<path d="M34.7555 26.6519C34.4746 26.5429 34.1937 26.465 33.8973 26.4183C33.1015 26.2937 31.3071 26.0135 31.2915 26.0135C29.4347 25.8578 25.5182 26.6051 25.2061 26.792C25.1437 26.8387 24.6444 26.9944 24.4259 26.792C24.2699 26.6363 24.0982 26.4183 24.5195 25.9979C24.9252 25.5931 25.0813 25.5463 26.2983 23.6779C26.9225 22.7437 27.2034 22.5257 27.7027 22.2765C28.6233 21.825 29.5751 21.498 30.5113 21.1866C31.2291 20.953 32.8518 19.3181 32.8518 19.3181C33.7881 18.5396 34.8803 16.0483 34.8803 16.0483C35.1924 15.2698 34.5682 15.2698 33.632 15.4255C33.2887 15.4878 32.8518 15.5812 32.3837 15.8926C31.3851 16.5622 29.1226 18.2126 29.107 18.2282C29.0914 18.2438 28.1708 19.0067 27.2346 20.5638C26.8601 21.1866 26.3452 22.261 26.0487 22.8838C25.8927 23.2108 25.7054 23.5066 25.487 23.7869L23.5053 26.2937C23.1776 26.7764 22.8812 26.9321 22.8656 26.9321C22.5535 27.0878 22.3975 26.9321 22.3975 26.3093C22.3975 25.3751 22.6315 24.0516 23.8018 22.8838C24.9408 21.7471 25.0033 19.5361 25.0033 19.4583C25.0189 19.3649 24.7692 17.4185 25.0033 16.5154C25.2529 15.5345 24.7068 12.7007 24.2699 12.327C24.2699 12.327 23.8642 12 23.6926 12C23.5521 12 23.4117 12.0623 23.3337 12.1713C22.6471 13.0432 21.3052 15.7369 21.1492 17.1383C21.0243 18.2282 20.9931 18.851 20.9931 19.941C20.9931 21.0309 21.0712 23.7557 21.6173 24.3007C22.1322 24.8145 21.8045 27.3214 21.7733 27.5549C21.7733 27.5705 21.4612 28.1778 21.4612 28.1933C21.3052 28.5047 20.9619 28.8473 20.6811 29.2833C20.369 29.7504 20.0881 30.3732 19.4328 30.3732C19.2767 30.3732 19.2143 29.9684 19.2767 29.9061C19.2767 29.9061 19.5888 29.2988 19.5888 29.2833C19.6512 29.1431 19.9009 28.5047 19.7449 27.5705C19.6824 27.1968 19.464 26.3249 17.7164 26.3249C16.4681 26.3249 16.749 28.349 16.7802 28.5047C16.9362 29.1276 17.1391 29.5635 17.4355 29.7192C17.8724 29.9061 18.0909 30.0151 18.2625 30.4511C18.4654 30.9649 18.3405 31.7745 17.8724 32.5531C17.5291 33.1136 16.4213 34.6084 16.1716 34.8575C16.156 34.8731 16 35.0444 16 35.2312C16 35.3558 16.1404 35.4336 16.2497 35.3713C16.3277 35.3246 16.3901 35.2935 16.4057 35.2623L17.0142 34.6551L18.8086 32.5531L22.2414 29.439C22.2414 29.439 22.7875 29.0497 23.1776 29.439C23.5521 29.8127 24.6912 29.9061 24.738 29.9061C26.2983 30.0618 27.2346 30.2175 30.3865 29.7348C30.8234 29.7504 35.3484 27.7262 35.3484 27.2591C35.364 26.9633 35.0831 26.792 34.7555 26.6519ZM29.2786 19.0067C29.9028 18.3683 30.5269 17.9168 30.5269 17.9168C30.8546 17.6677 31.6036 17.1071 32.0873 16.6712C32.1653 16.6089 32.3057 16.4687 32.5554 16.3597C32.727 16.2819 32.883 16.2507 33.1795 16.204C33.6476 16.1262 33.8661 16.095 33.9597 16.204C33.9909 16.2507 34.0065 16.3286 33.9597 16.5154C33.8505 16.9203 33.6008 17.1538 33.3356 17.4497C32.8518 17.9946 33.0079 17.9479 32.7114 18.2282C32.2121 18.6797 31.9624 18.633 31.7752 19.0067C31.7284 19.1002 31.6504 19.287 31.4631 19.4738C31.2759 19.6607 31.1823 19.6295 31.1511 19.6295C31.0574 19.614 31.0106 19.505 30.995 19.4738C30.8858 19.2403 31.073 19.1002 30.995 18.851C30.9482 18.7109 30.8234 18.5396 30.6829 18.5396C30.5425 18.5396 30.4957 18.6953 30.2148 19.0067C29.9808 19.2714 29.8247 19.4427 29.5907 19.4738C29.4035 19.505 29.1694 19.4427 29.1226 19.3181C29.0914 19.2091 29.2162 19.069 29.2786 19.0067ZM18.9803 28.5047C18.9335 28.6293 18.8555 28.6449 18.6682 28.8162C18.4498 29.0186 18.4498 29.1276 18.3561 29.1276C18.2157 29.1276 18.0753 28.8784 18.0441 28.6604C18.0129 28.4269 18.1065 28.3646 18.0441 28.1933C18.0129 28.131 17.9192 28.0376 17.732 27.8819C17.5291 27.7106 17.4667 27.6795 17.4199 27.5705C17.4043 27.5394 17.3419 27.3837 17.4199 27.2591C17.4823 27.1501 17.6072 27.1345 17.732 27.1034C17.8256 27.0878 17.9973 27.0567 18.2001 27.1034C18.3717 27.1345 18.637 27.1812 18.8242 27.4148C18.8555 27.4459 18.9491 27.5549 18.9803 27.7262C19.0115 27.8663 18.9803 27.9131 18.9803 28.1933C18.9803 28.4269 19.0115 28.4269 18.9803 28.5047ZM22.257 23.3665C22.1166 23.3665 21.9918 22.8994 21.945 22.5879C21.8825 22.1831 21.9294 21.8561 21.945 21.8094C22.1166 20.7351 21.8045 20.2057 21.945 18.3839C22.0074 17.6054 22.0542 17.7767 22.101 17.1383C22.1166 16.7957 22.1166 16.5933 22.257 16.3597C22.3663 16.1885 22.4599 16.1418 22.5691 15.8926C22.6159 15.7992 22.6159 15.7836 22.7251 15.4255C22.8032 15.1764 22.85 15.0518 22.8812 14.9584C23.0216 14.6158 23.0684 14.6314 23.1932 14.3356C23.3805 13.884 23.3181 13.666 23.5053 13.5571C23.5989 13.5103 23.7394 13.4948 23.8174 13.5571C23.9266 13.6505 23.8486 13.884 23.8174 14.0242C23.7082 14.4913 23.8954 14.6003 23.9734 15.4255C24.0514 16.2663 23.8642 16.2196 23.9734 16.8269C24.0514 17.2317 24.1295 17.2317 24.2855 17.9168C24.3947 18.3995 24.4259 18.7265 24.4415 18.851C24.4727 19.2403 24.4571 19.4738 24.4415 19.7853C24.4103 20.2835 24.3479 20.3614 24.2855 20.4081C24.1138 20.5171 23.833 20.4081 23.6613 20.2524C23.5677 20.1589 23.5209 20.0655 23.3493 19.3181C23.2557 18.9133 23.2244 18.7109 23.0372 18.5396C22.9748 18.4773 22.8344 18.3372 22.7251 18.3839C22.6627 18.415 22.5535 18.524 22.7251 19.941C22.85 20.9219 22.9124 20.9686 22.8812 21.3423C22.8656 21.5447 22.7719 21.8873 22.5691 22.5879C22.3819 23.2419 22.335 23.3665 22.257 23.3665ZM33.5696 27.6484C33.5384 27.8508 33.3199 27.9909 33.1015 28.1155C32.7738 28.3023 32.571 28.3179 32.1653 28.4269C31.7128 28.5515 31.7752 28.5826 30.917 28.894C30.4333 29.0653 30.0588 29.1743 29.9808 29.2054C29.3098 29.4078 28.9353 29.3611 26.392 29.3611C26.392 29.3611 25.9863 29.3611 24.5195 29.2054C24.0202 29.1587 23.6613 29.112 23.5833 28.894C23.5053 28.6916 23.755 28.4113 23.8954 28.2712C24.3323 27.8041 24.8472 27.6328 25.2997 27.4927C26.4232 27.1345 26.9849 26.9477 27.4842 26.8698C27.7495 26.8231 28.3892 26.792 29.6687 26.7141C29.6687 26.7141 30.1836 26.683 31.8532 26.7141C32.1965 26.7141 32.6646 26.7297 33.1015 27.0255C33.2263 27.1034 33.6008 27.3525 33.5696 27.6484Z" fill="#F30E29"/>
<path d="M22.4781 49.7754C22.0997 49.6882 21.7465 49.5462 21.4186 49.3496C21.0965 49.1493 20.8564 48.9325 20.6983 48.6994L21.0933 48.2002C21.2452 48.4168 21.4569 48.6144 21.7284 48.793C22.0059 48.9679 22.3027 49.0918 22.6188 49.1647C23.0355 49.2607 23.3628 49.263 23.6008 49.1716C23.8399 49.0754 23.9865 48.9099 24.0406 48.6752C24.0803 48.5028 24.0548 48.3506 23.9642 48.2188C23.8794 48.0832 23.7598 47.9674 23.6054 47.8713C23.4558 47.7763 23.2384 47.6581 22.9532 47.5167C22.5958 47.3385 22.3103 47.1768 22.0965 47.0317C21.8876 46.8877 21.7208 46.703 21.5963 46.4776C21.4776 46.2484 21.4552 45.9734 21.5292 45.6525C21.591 45.3843 21.7162 45.1584 21.9047 44.9749C22.0981 44.7925 22.3534 44.6697 22.6706 44.6066C22.9878 44.5436 23.3595 44.5611 23.7858 44.6594C24.0827 44.7278 24.3661 44.8335 24.6358 44.9764C24.9055 45.1192 25.1268 45.2862 25.2996 45.4774L24.9301 45.9975C24.7502 45.8148 24.5483 45.6624 24.3243 45.5401C24.1014 45.4131 23.8749 45.3231 23.645 45.2701C23.2379 45.1762 22.9143 45.1798 22.6741 45.2808C22.4387 45.383 22.294 45.5514 22.2399 45.7861C22.2001 45.9585 22.225 46.113 22.3146 46.2497C22.4053 46.3816 22.5272 46.4979 22.6805 46.5988C22.8397 46.6961 23.0577 46.8119 23.3344 46.9463C23.6918 47.1245 23.975 47.2856 24.1839 47.4296C24.3928 47.5736 24.5572 47.7577 24.677 47.982C24.8016 48.2075 24.8274 48.4783 24.7546 48.7944C24.6939 49.0578 24.5663 49.2831 24.3718 49.4703C24.1784 49.6528 23.9208 49.775 23.5988 49.8369C23.2779 49.8941 22.9043 49.8736 22.4781 49.7754Z" fill="#F30E29"/>
<path d="M28.9 50.3593C28.38 50.3926 27.9043 50.3098 27.4729 50.1108C27.0412 49.907 26.6923 49.6116 26.4262 49.2248C26.165 48.8377 26.0185 48.3964 25.9868 47.9009C25.9551 47.4055 26.0441 46.9492 26.2538 46.5318C26.4684 46.1142 26.7769 45.7792 27.1794 45.5269C27.5816 45.2697 28.0427 45.1244 28.5626 45.0911C29.0777 45.0581 29.551 45.1436 29.9827 45.3474C30.4141 45.5463 30.7604 45.8394 31.0216 46.2265C31.2825 46.6088 31.429 47.0501 31.461 47.5504C31.4931 48.0507 31.4042 48.5095 31.1946 48.9268C30.9845 49.3392 30.6785 49.6741 30.2763 49.9313C29.8738 50.1837 29.415 50.3263 28.9 50.3593ZM28.858 49.7044C29.2357 49.6803 29.5687 49.5727 29.8569 49.3819C30.15 49.1907 30.3729 48.9401 30.5254 48.6299C30.6825 48.3144 30.7491 47.9703 30.7253 47.5975C30.7014 47.2247 30.5916 46.8944 30.3958 46.6065C30.2047 46.3133 29.9515 46.0907 29.6364 45.9384C29.3262 45.7859 28.9822 45.7218 28.6045 45.7459C28.2268 45.7701 27.889 45.878 27.5909 46.0694C27.2978 46.2606 27.0727 46.5139 26.9156 46.8293C26.7631 47.1395 26.6987 47.481 26.7226 47.8538C26.7465 48.2266 26.854 48.5596 27.0451 48.8527C27.2409 49.1406 27.4963 49.3607 27.8114 49.5129C28.1315 49.6648 28.4803 49.7286 28.858 49.7044Z" fill="#F30E29"/>
<path d="M32.1571 44.6793L32.848 44.4219L34.4258 48.6571L37.0443 47.6816L37.2683 48.2827L33.9589 49.5156L32.1571 44.6793Z" fill="#F30E29"/>
<path d="M36.2324 43.1519L37.9613 41.8321C38.395 41.5011 38.8454 41.2933 39.3127 41.2087C39.7799 41.1241 40.2246 41.168 40.6468 41.3404C41.07 41.5059 41.4352 41.7899 41.7423 42.1923C42.0495 42.5947 42.2287 43.0238 42.2797 43.4795C42.3317 43.9283 42.2553 44.367 42.0505 44.7954C41.8457 45.2238 41.5265 45.6035 41.0928 45.9345L39.364 47.2542L36.2324 43.1519ZM40.6685 45.4515C41.0005 45.198 41.2424 44.9113 41.394 44.5915C41.5496 44.2687 41.6077 43.9399 41.5685 43.605C41.5263 43.2662 41.3889 42.9444 41.1563 42.6397C40.9237 42.3349 40.651 42.1195 40.3383 41.9933C40.0226 41.8633 39.6886 41.8308 39.3362 41.8957C38.9877 41.9576 38.6474 42.1153 38.3153 42.3688L37.2077 43.2144L39.5608 46.297L40.6685 45.4515Z" fill="#F30E29"/>
<path d="M47.8602 38.0169C47.6282 38.4834 47.318 38.8534 46.9296 39.1268C46.5367 39.3981 46.1062 39.5518 45.6381 39.5881C45.1721 39.6199 44.7169 39.5253 44.2724 39.3042C43.8278 39.0832 43.4777 38.7774 43.2218 38.3867C42.9681 37.9916 42.8331 37.5566 42.8166 37.0819C42.7958 36.6049 42.9013 36.1332 43.1333 35.6666C43.363 35.2045 43.6744 34.8378 44.0672 34.5665C44.4557 34.2931 44.8829 34.1405 45.3488 34.1087C45.8104 34.0746 46.2656 34.1692 46.7145 34.3925C47.1635 34.6157 47.5159 34.9226 47.7717 35.3133C48.0232 35.7018 48.1593 36.1346 48.1802 36.6115C48.1966 37.0863 48.09 37.5547 47.8602 38.0169ZM47.2726 37.7247C47.4411 37.3858 47.5151 37.0439 47.4946 36.6988C47.4762 36.3493 47.3711 36.0308 47.1792 35.7433C46.9851 35.4492 46.7208 35.219 46.3863 35.0526C46.0518 34.8863 45.7109 34.8157 45.3637 34.8406C45.0142 34.859 44.6946 34.9663 44.4049 35.1626C44.1174 35.3545 43.8893 35.6199 43.7208 35.9588C43.5523 36.2977 43.4762 36.644 43.4924 36.9979C43.5107 37.3474 43.617 37.6692 43.8111 37.9633C44.0029 38.2508 44.2661 38.4777 44.6006 38.6441C44.9351 38.8104 45.2771 38.8843 45.6266 38.866C45.9738 38.841 46.2923 38.7304 46.582 38.5341C46.8739 38.3334 47.1041 38.0636 47.2726 37.7247Z" fill="#F30E29"/>
<path d="M50.0688 31.0972C49.98 31.7796 49.7158 32.2855 49.2764 32.6149C48.8369 32.9443 48.2517 33.0614 47.5206 32.9661L44.6107 32.5872L44.7059 31.8561L47.5865 32.2312C48.6832 32.374 49.2941 31.9653 49.4191 31.0052C49.48 30.5372 49.3927 30.1615 49.157 29.878C48.9164 29.5939 48.5183 29.4157 47.9626 29.3433L45.082 28.9682L45.1744 28.259L48.0842 28.6379C48.8202 28.7338 49.3584 28.9972 49.6988 29.4282C50.0344 29.8585 50.1577 30.4148 50.0688 31.0972Z" fill="#F30E29"/>
<path d="M45.5944 25.5327L45.8831 27.2784L45.2502 27.3831L44.5538 23.1714L45.1866 23.0667L45.4753 24.8125L49.9343 24.0752L50.0534 24.7953L45.5944 25.5327Z" fill="#F30E29"/>
<path fill-rule="evenodd" clip-rule="evenodd" d="M0 24C0 35.5327 8.13446 45.1655 18.9788 47.4739L18.8774 46.8052C8.43536 44.4699 0.631592 35.1463 0.631592 24C0.631592 11.094 11.094 0.631592 24 0.631592C35.8895 0.631592 45.7052 9.51086 47.1776 21H47.8143C46.338 9.16107 36.2388 0 24 0C10.7452 0 0 10.7452 0 24Z" fill="#F30E29"/>
</svg>
